<?xml version="1.0" encoding="UTF-8" standalone="no"?>
<svg width="1338px" height="280px" viewBox="0 0 1338 280" version="1.1" xmlns="http://www.w3.org/2000/svg" xmlns:xlink="http://www.w3.org/1999/xlink">
    <!-- Generator: Sketch 41.2 (35397) - http://www.bohemiancoding.com/sketch -->
    <title>main-banner</title>
    <desc>Created with Sketch.</desc>
    <defs></defs>
    <g id="Design" stroke="none" stroke-width="1" fill="none" fill-rule="evenodd">
        <g id="banner-outline" transform="translate(-49.000000, -45.000000)" fill="#FFFFFF">
            <g id="main-banner" transform="translate(48.000000, 45.000000)">
                <g id="banner-text" transform="translate(16.000000, 0.000000)">
                    <path d="M539,117.6 L529.112,117.6 L529.112,134.64 C529.112,139.152 527.384,144.288 526.04,146.784 L525.944,146.784 C524.648,144.336 522.824,139.68 522.824,134.64 L522.824,117.6 L512.936,117.6 L512.936,136.176 C512.936,137.52 513.032,138.48 513.272,139.776 C513.032,142.272 511.832,145.344 511.064,146.736 L510.872,146.736 C509.576,144.288 507.752,139.68 507.752,134.64 L507.752,117.6 L497.864,117.6 L497.864,136.176 C497.864,144 502.232,150.432 506.024,155.952 L515.816,155.952 C516.632,154.752 517.64,152.976 518.36,151.344 L518.504,151.344 C519.32,152.976 520.232,154.608 521.048,155.952 L530.84,155.952 C534.92,150.336 539,143.424 539,135.888 L539,117.6 Z M564.68,147.168 L552.296,147.168 L552.296,140.976 L564.68,140.976 L564.68,132.24 L552.296,132.24 L552.296,126.384 L564.68,126.384 L564.68,117.6 L542.408,117.6 L542.408,155.952 L564.68,155.952 L564.68,147.168 Z M593.48,141.216 C593.48,138.336 592.136,137.04 590.168,136.704 L590.168,136.608 C592.184,135.888 593.48,134.544 593.48,131.664 L593.48,123.888 C593.48,119.328 591.08,117.6 586.712,117.6 L568.088,117.6 L568.088,155.952 L586.664,155.952 C590.936,155.952 593.48,153.6 593.48,149.712 L593.48,141.216 Z M577.976,132.24 L577.976,126.384 L583.592,126.384 L583.592,132.24 L577.976,132.24 Z M577.976,147.168 L577.976,140.976 L583.592,140.976 L583.592,147.168 L577.976,147.168 Z M635,123.696 C635,119.28 632.456,117.6 628.376,117.6 L608.888,117.6 L608.888,155.952 L628.376,155.952 C632.648,155.952 635,154.032 635,149.904 L635,123.696 Z M618.776,147.168 L618.776,126.432 L625.112,126.432 L625.112,147.168 L618.776,147.168 Z M661.16,147.168 L648.776,147.168 L648.776,140.976 L661.16,140.976 L661.16,132.24 L648.776,132.24 L648.776,126.384 L661.16,126.384 L661.16,117.6 L638.888,117.6 L638.888,155.952 L661.16,155.952 L661.16,147.168 Z M687.464,138.768 C687.464,134.16 685.304,132.24 680.696,132.24 L674.456,132.24 L674.456,126.384 L686.504,126.384 L686.504,117.6 L671.288,117.6 C666.92,117.6 664.568,119.328 664.568,123.888 L664.568,135.024 C664.568,138.384 665.816,141.024 671.24,141.024 L677.576,141.024 L677.576,147.168 L664.568,147.168 L664.568,155.952 L680.744,155.952 C685.064,155.952 687.464,154.32 687.464,149.904 L687.464,138.768 Z M700.76,117.6 L690.872,117.6 L690.872,155.952 L700.76,155.952 L700.76,117.6 Z M729.272,136.032 L719.384,136.032 L719.384,147.168 L714.536,147.168 L714.536,126.432 L725.912,126.384 L725.912,117.6 L711.368,117.6 C707,117.6 704.648,119.328 704.648,123.888 L704.648,149.904 C704.648,154.32 707,155.952 711.32,155.952 L729.272,155.952 L729.272,136.032 Z M758.744,123.888 C758.744,119.328 756.344,117.6 751.976,117.6 L732.68,117.6 L732.68,155.952 L742.568,155.952 L742.568,126.384 L748.856,126.384 L748.856,155.952 L758.744,155.952 L758.744,123.888 Z M784.904,147.168 L772.52,147.168 L772.52,140.976 L784.904,140.976 L784.904,132.24 L772.52,132.24 L772.52,126.384 L784.904,126.384 L784.904,117.6 L762.632,117.6 L762.632,155.952 L784.904,155.952 L784.904,147.168 Z M813.704,143.28 C813.704,140.4 812.312,139.056 810.152,138.768 L810.152,138.672 C812.36,138 813.704,136.608 813.704,133.728 L813.704,123.888 C813.704,119.328 811.304,117.6 806.936,117.6 L788.312,117.6 L788.312,155.952 L798.2,155.952 L798.2,143.04 L803.816,143.04 L803.816,155.952 L813.704,155.952 L813.704,143.28 Z M798.2,134.304 L798.2,126.384 L803.816,126.384 L803.816,134.304 L798.2,134.304 Z" id="level-3"></path>
                    <path d="M53.3980625,14.8 L48.4540625,14.8 L48.4540625,29.584 L45.3100625,29.584 L45.3100625,14.8 L40.3660625,14.8 L40.3660625,30.856 C40.3660625,33.136 41.5420625,33.976 43.7260625,33.976 L50.0140625,33.976 C52.1980625,33.976 53.3980625,33.136 53.3980625,30.856 L53.3980625,14.8 Z M68.3740625,27.064 C68.3740625,25.624 67.4140625,24.496 66.3820625,24.352 L66.3820625,24.28 C67.4140625,23.968 68.3740625,22.984 68.3740625,21.544 L68.3740625,14.8 L63.4540625,14.8 L63.4540625,22.12 L60.2860625,22.12 L60.2860625,14.8 L55.3420625,14.8 L55.3420625,21.52 C55.3420625,22.96 56.3980625,23.992 57.3340625,24.304 L57.3340625,24.352 C56.3500625,24.52 55.3420625,25.528 55.3420625,26.968 L55.3420625,33.976 L60.2860625,33.976 L60.2860625,26.488 L63.4540625,26.488 L63.4540625,33.976 L68.3740625,33.976 L68.3740625,27.064 Z M89.1340625,17.848 C89.1340625,15.64 87.8620625,14.8 85.8220625,14.8 L76.0780625,14.8 L76.0780625,33.976 L85.8220625,33.976 C87.9580625,33.976 89.1340625,33.016 89.1340625,30.952 L89.1340625,17.848 Z M81.0220625,29.584 L81.0220625,19.216 L84.1900625,19.216 L84.1900625,29.584 L81.0220625,29.584 Z M102.214063,29.584 L96.0220625,29.584 L96.0220625,26.488 L102.214063,26.488 L102.214063,22.12 L96.0220625,22.12 L96.0220625,19.192 L102.214063,19.192 L102.214063,14.8 L91.0780625,14.8 L91.0780625,33.976 L102.214063,33.976 L102.214063,29.584 Z M115.366062,25.384 C115.366062,23.08 114.286063,22.12 111.982063,22.12 L108.862063,22.12 L108.862063,19.192 L114.886063,19.192 L114.886063,14.8 L107.278063,14.8 C105.094063,14.8 103.918062,15.664 103.918062,17.944 L103.918062,23.512 C103.918062,25.192 104.542063,26.512 107.254063,26.512 L110.422063,26.512 L110.422063,29.584 L103.918062,29.584 L103.918062,33.976 L112.006063,33.976 C114.166063,33.976 115.366062,33.16 115.366062,30.952 L115.366062,25.384 Z M122.014062,14.8 L117.070063,14.8 L117.070063,33.976 L122.014062,33.976 L122.014062,14.8 Z M136.270062,24.016 L131.326063,24.016 L131.326063,29.584 L128.902062,29.584 L128.902062,19.216 L134.590062,19.192 L134.590062,14.8 L127.318062,14.8 C125.134062,14.8 123.958063,15.664 123.958063,17.944 L123.958063,30.952 C123.958063,33.16 125.134062,33.976 127.294062,33.976 L136.270062,33.976 L136.270062,24.016 Z M151.006063,17.944 C151.006063,15.664 149.806062,14.8 147.622063,14.8 L137.974063,14.8 L137.974063,33.976 L142.918063,33.976 L142.918063,19.192 L146.062063,19.192 L146.062063,33.976 L151.006063,33.976 L151.006063,17.944 Z M164.086063,29.584 L157.894063,29.584 L157.894063,26.488 L164.086063,26.488 L164.086063,22.12 L157.894063,22.12 L157.894063,19.192 L164.086063,19.192 L164.086063,14.8 L152.950063,14.8 L152.950063,33.976 L164.086063,33.976 L164.086063,29.584 Z M178.486063,27.64 C178.486063,26.2 177.790062,25.528 176.710062,25.384 L176.710062,25.336 C177.814062,25 178.486063,24.304 178.486063,22.864 L178.486063,17.944 C178.486063,15.664 177.286063,14.8 175.102062,14.8 L165.790062,14.8 L165.790062,33.976 L170.734062,33.976 L170.734062,27.52 L173.542062,27.52 L173.542062,33.976 L178.486063,33.976 L178.486063,27.64 Z M170.734063,23.152 L170.734063,19.192 L173.542063,19.192 L173.542063,23.152 L170.734063,23.152 Z" id="level-2"></path>
                    <path d="M334.328,57.848 C334.328,55.64 333.056,54.8 331.016,54.8 L321.272,54.8 L321.272,73.976 L331.016,73.976 C333.152,73.976 334.328,73.016 334.328,70.952 L334.328,57.848 Z M326.216,69.584 L326.216,59.216 L329.384,59.216 L329.384,69.584 L326.216,69.584 Z M341.216,54.8 L336.272,54.8 L336.272,73.976 L341.216,73.976 L341.216,54.8 Z M355.472,64.016 L350.528,64.016 L350.528,69.584 L348.104,69.584 L348.104,59.216 L353.792,59.192 L353.792,54.8 L346.52,54.8 C344.336,54.8 343.16,55.664 343.16,57.944 L343.16,70.952 C343.16,73.16 344.336,73.976 346.496,73.976 L355.472,73.976 L355.472,64.016 Z M362.12,54.8 L357.176,54.8 L357.176,73.976 L362.12,73.976 L362.12,54.8 Z M376.64,54.8 L363.488,54.8 L363.488,59.192 L367.592,59.192 L367.592,73.976 L372.536,73.976 L372.536,59.192 L376.64,59.192 L376.64,54.8 Z M391.04,57.944 C391.04,55.664 389.84,54.8 387.656,54.8 L381.392,54.8 C379.208,54.8 378.008,55.664 378.008,57.944 L378.008,73.976 L382.952,73.976 L382.952,68.816 L386.096,68.816 L386.096,73.976 L391.04,73.976 L391.04,57.944 Z M382.952,64.472 L382.952,59.192 L386.144,59.192 L386.144,64.472 L382.952,64.472 Z M404.12,69.584 L397.928,69.584 L397.928,54.8 L392.984,54.8 L392.984,73.976 L404.12,73.976 L404.12,69.584 Z M424.4,57.848 C424.4,55.64 423.128,54.8 421.088,54.8 L411.344,54.8 L411.344,73.976 L421.088,73.976 C423.224,73.976 424.4,73.016 424.4,70.952 L424.4,57.848 Z M416.288,69.584 L416.288,59.216 L419.456,59.216 L419.456,69.584 L416.288,69.584 Z M437.48,69.584 L431.288,69.584 L431.288,66.488 L437.48,66.488 L437.48,62.12 L431.288,62.12 L431.288,59.192 L437.48,59.192 L437.48,54.8 L426.344,54.8 L426.344,73.976 L437.48,73.976 L437.48,69.584 Z M450.632,65.384 C450.632,63.08 449.552,62.12 447.248,62.12 L444.128,62.12 L444.128,59.192 L450.152,59.192 L450.152,54.8 L442.544,54.8 C440.36,54.8 439.184,55.664 439.184,57.944 L439.184,63.512 C439.184,65.192 439.808,66.512 442.52,66.512 L445.688,66.512 L445.688,69.584 L439.184,69.584 L439.184,73.976 L447.272,73.976 C449.432,73.976 450.632,73.16 450.632,70.952 L450.632,65.384 Z M457.28,54.8 L452.336,54.8 L452.336,73.976 L457.28,73.976 L457.28,54.8 Z M471.536,64.016 L466.592,64.016 L466.592,69.584 L464.168,69.584 L464.168,59.216 L469.856,59.192 L469.856,54.8 L462.584,54.8 C460.4,54.8 459.224,55.664 459.224,57.944 L459.224,70.952 C459.224,73.16 460.4,73.976 462.56,73.976 L471.536,73.976 L471.536,64.016 Z M486.272,57.944 C486.272,55.664 485.072,54.8 482.888,54.8 L473.24,54.8 L473.24,73.976 L478.184,73.976 L478.184,59.192 L481.328,59.192 L481.328,73.976 L486.272,73.976 L486.272,57.944 Z M499.352,69.584 L493.16,69.584 L493.16,66.488 L499.352,66.488 L499.352,62.12 L493.16,62.12 L493.16,59.192 L499.352,59.192 L499.352,54.8 L488.216,54.8 L488.216,73.976 L499.352,73.976 L499.352,69.584 Z M513.752,67.64 C513.752,66.2 513.056,65.528 511.976,65.384 L511.976,65.336 C513.08,65 513.752,64.304 513.752,62.864 L513.752,57.944 C513.752,55.664 512.552,54.8 510.368,54.8 L501.056,54.8 L501.056,73.976 L506,73.976 L506,67.52 L508.808,67.52 L508.808,73.976 L513.752,73.976 L513.752,67.64 Z M506,63.152 L506,59.192 L508.808,59.192 L508.808,63.152 L506,63.152 Z" id="level-2"></path>
                    <path d="M20.6060625,156.8 L15.6620625,156.8 L15.6620625,165.32 C15.6620625,167.576 14.7980625,170.144 14.1260625,171.392 L14.0780625,171.392 C13.4300625,170.168 12.5180625,167.84 12.5180625,165.32 L12.5180625,156.8 L7.5740625,156.8 L7.5740625,166.088 C7.5740625,166.76 7.6220625,167.24 7.7420625,167.888 C7.6220625,169.136 7.0220625,170.672 6.6380625,171.368 L6.5420625,171.368 C5.8940625,170.144 4.9820625,167.84 4.9820625,165.32 L4.9820625,156.8 L0.0380625,156.8 L0.0380625,166.088 C0.0380625,170 2.2220625,173.216 4.1180625,175.976 L9.0140625,175.976 C9.4220625,175.376 9.9260625,174.488 10.2860625,173.672 L10.3580625,173.672 C10.7660625,174.488 11.2220625,175.304 11.6300625,175.976 L16.5260625,175.976 C18.5660625,173.168 20.6060625,169.712 20.6060625,165.944 L20.6060625,156.8 Z M33.4460625,171.584 L27.2540625,171.584 L27.2540625,168.488 L33.4460625,168.488 L33.4460625,164.12 L27.2540625,164.12 L27.2540625,161.192 L33.4460625,161.192 L33.4460625,156.8 L22.3100625,156.8 L22.3100625,175.976 L33.4460625,175.976 L33.4460625,171.584 Z M47.8460625,168.608 C47.8460625,167.168 47.1740625,166.52 46.1900625,166.352 L46.1900625,166.304 C47.1980625,165.944 47.8460625,165.272 47.8460625,163.832 L47.8460625,159.944 C47.8460625,157.664 46.6460625,156.8 44.4620625,156.8 L35.1500625,156.8 L35.1500625,175.976 L44.4380625,175.976 C46.5740625,175.976 47.8460625,174.8 47.8460625,172.856 L47.8460625,168.608 Z M40.0940625,164.12 L40.0940625,161.192 L42.9020625,161.192 L42.9020625,164.12 L40.0940625,164.12 Z M40.0940625,171.584 L40.0940625,168.488 L42.9020625,168.488 L42.9020625,171.584 L40.0940625,171.584 Z M68.6060625,159.848 C68.6060625,157.64 67.3340625,156.8 65.2940625,156.8 L55.5500625,156.8 L55.5500625,175.976 L65.2940625,175.976 C67.4300625,175.976 68.6060625,175.016 68.6060625,172.952 L68.6060625,159.848 Z M60.4940625,171.584 L60.4940625,161.216 L63.6620625,161.216 L63.6620625,171.584 L60.4940625,171.584 Z M81.6860625,171.584 L75.4940625,171.584 L75.4940625,168.488 L81.6860625,168.488 L81.6860625,164.12 L75.4940625,164.12 L75.4940625,161.192 L81.6860625,161.192 L81.6860625,156.8 L70.5500625,156.8 L70.5500625,175.976 L81.6860625,175.976 L81.6860625,171.584 Z M96.1820625,156.8 L91.2380625,156.8 L91.2380625,165.32 C91.2380625,167.552 90.4460625,170.096 89.7500625,171.392 C89.5100625,170.984 88.0940625,168.368 88.0940625,165.32 L88.0940625,156.8 L83.1500625,156.8 L83.1500625,166.088 C83.1500625,170 85.3340625,173.216 87.2300625,175.976 L92.1260625,175.976 C94.1660625,173.168 96.1820625,169.712 96.1820625,165.944 L96.1820625,156.8 Z M109.022063,171.584 L102.830063,171.584 L102.830063,168.488 L109.022063,168.488 L109.022063,164.12 L102.830063,164.12 L102.830063,161.192 L109.022063,161.192 L109.022063,156.8 L97.8860625,156.8 L97.8860625,175.976 L109.022063,175.976 L109.022063,171.584 Z M121.862063,171.584 L115.670063,171.584 L115.670063,156.8 L110.726063,156.8 L110.726063,175.976 L121.862063,175.976 L121.862063,171.584 Z M136.358063,159.848 C136.358063,157.664 135.158063,156.8 133.070063,156.8 L126.614063,156.8 C124.430063,156.8 123.326063,157.808 123.326063,159.848 L123.326063,172.952 C123.326063,175.136 124.550063,175.976 126.614063,175.976 L133.070063,175.976 C135.254063,175.976 136.358063,175.088 136.358063,172.952 L136.358063,159.848 Z M128.270062,171.584 L128.270062,161.216 L131.414062,161.216 L131.414062,171.584 L128.270062,171.584 Z M151.334063,159.944 C151.334063,157.664 150.134063,156.8 147.950063,156.8 L138.302063,156.8 L138.302063,175.976 L143.246063,175.976 L143.246063,171.272 L147.950063,171.272 C150.134063,171.272 151.334063,170.456 151.334063,168.176 L151.334063,159.944 Z M143.246063,166.904 L143.246063,161.192 L146.390063,161.192 L146.390063,166.904 L143.246063,166.904 Z M164.174063,171.584 L157.982063,171.584 L157.982063,168.488 L164.174063,168.488 L164.174063,164.12 L157.982063,164.12 L157.982063,161.192 L164.174063,161.192 L164.174063,156.8 L153.038063,156.8 L153.038063,175.976 L164.174063,175.976 L164.174063,171.584 Z M178.574062,169.64 C178.574062,168.2 177.878062,167.528 176.798062,167.384 L176.798062,167.336 C177.902062,167 178.574062,166.304 178.574062,164.864 L178.574062,159.944 C178.574062,157.664 177.374062,156.8 175.190062,156.8 L165.878062,156.8 L165.878062,175.976 L170.822062,175.976 L170.822062,169.52 L173.630062,169.52 L173.630062,175.976 L178.574062,175.976 L178.574062,169.64 Z M170.822063,165.152 L170.822063,161.192 L173.630063,161.192 L173.630063,165.152 L170.822063,165.152 Z" id="level-2"></path>
                    <path d="M279.5,236.384 C279.5,234.08 278.42,233.12 276.116,233.12 L272.996,233.12 L272.996,230.192 L279.02,230.192 L279.02,225.8 L271.412,225.8 C269.228,225.8 268.052,226.664 268.052,228.944 L268.052,234.512 C268.052,236.192 268.676,237.512 271.388,237.512 L274.556,237.512 L274.556,240.584 L268.052,240.584 L268.052,244.976 L276.14,244.976 C278.3,244.976 279.5,244.16 279.5,241.952 L279.5,236.384 Z M294.236,225.8 L289.292,225.8 L289.292,240.584 L286.148,240.584 L286.148,225.8 L281.204,225.8 L281.204,241.856 C281.204,244.136 282.38,244.976 284.564,244.976 L290.852,244.976 C293.036,244.976 294.236,244.136 294.236,241.856 L294.236,225.8 Z M309.212,228.944 C309.212,226.664 308.012,225.8 305.828,225.8 L296.18,225.8 L296.18,244.976 L301.124,244.976 L301.124,240.272 L305.828,240.272 C308.012,240.272 309.212,239.456 309.212,237.176 L309.212,228.944 Z M301.124,235.904 L301.124,230.192 L304.268,230.192 L304.268,235.904 L301.124,235.904 Z M323.948,228.944 C323.948,226.664 322.748,225.8 320.564,225.8 L310.916,225.8 L310.916,244.976 L315.86,244.976 L315.86,240.272 L320.564,240.272 C322.748,240.272 323.948,239.456 323.948,237.176 L323.948,228.944 Z M315.86,235.904 L315.86,230.192 L319.004,230.192 L319.004,235.904 L315.86,235.904 Z M338.684,228.848 C338.684,226.664 337.484,225.8 335.396,225.8 L328.94,225.8 C326.756,225.8 325.652,226.808 325.652,228.848 L325.652,241.952 C325.652,244.136 326.876,244.976 328.94,244.976 L335.396,244.976 C337.58,244.976 338.684,244.088 338.684,241.952 L338.684,228.848 Z M330.596,240.584 L330.596,230.216 L333.74,230.216 L333.74,240.584 L330.596,240.584 Z M353.324,238.64 C353.324,237.2 352.628,236.528 351.548,236.384 L351.548,236.336 C352.652,236 353.324,235.304 353.324,233.864 L353.324,228.944 C353.324,226.664 352.124,225.8 349.94,225.8 L340.628,225.8 L340.628,244.976 L345.572,244.976 L345.572,238.52 L348.38,238.52 L348.38,244.976 L353.324,244.976 L353.324,238.64 Z M345.572,234.152 L345.572,230.192 L348.38,230.192 L348.38,234.152 L345.572,234.152 Z M367.844,225.8 L354.692,225.8 L354.692,230.192 L358.796,230.192 L358.796,244.976 L363.74,244.976 L363.74,230.192 L367.844,230.192 L367.844,225.8 Z M386.42,236.384 C386.42,234.08 385.34,233.12 383.036,233.12 L379.916,233.12 L379.916,230.192 L385.94,230.192 L385.94,225.8 L378.332,225.8 C376.148,225.8 374.972,226.664 374.972,228.944 L374.972,234.512 C374.972,236.192 375.596,237.512 378.308,237.512 L381.476,237.512 L381.476,240.584 L374.972,240.584 L374.972,244.976 L383.06,244.976 C385.22,244.976 386.42,244.16 386.42,241.952 L386.42,236.384 Z M401.156,228.944 C401.156,226.664 399.956,225.8 397.772,225.8 L388.124,225.8 L388.124,244.976 L393.068,244.976 L393.068,240.272 L397.772,240.272 C399.956,240.272 401.156,239.456 401.156,237.176 L401.156,228.944 Z M393.068,235.904 L393.068,230.192 L396.212,230.192 L396.212,235.904 L393.068,235.904 Z M413.996,240.584 L407.804,240.584 L407.804,237.488 L413.996,237.488 L413.996,233.12 L407.804,233.12 L407.804,230.192 L413.996,230.192 L413.996,225.8 L402.86,225.8 L402.86,244.976 L413.996,244.976 L413.996,240.584 Z M426.98,240.584 L420.644,240.584 L420.644,230.216 L426.98,230.192 L426.98,225.8 L418.988,225.8 C416.804,225.8 415.7,226.64 415.7,228.848 L415.7,241.952 C415.7,244.16 416.804,244.976 418.988,244.976 L426.98,244.976 L426.98,240.584 Z M433.388,225.8 L428.444,225.8 L428.444,244.976 L433.388,244.976 L433.388,225.8 Z M448.388,225.8 L438.716,225.8 C436.532,225.8 435.332,226.664 435.332,228.944 L435.332,244.976 L440.276,244.976 L440.276,239.816 L443.444,239.816 L443.444,244.976 L448.388,244.976 L448.388,225.8 Z M440.276,235.472 L440.276,230.192 L443.444,230.192 L443.444,235.472 L440.276,235.472 Z M461.468,240.584 L455.276,240.584 L455.276,225.8 L450.332,225.8 L450.332,244.976 L461.468,244.976 L461.468,240.584 Z M467.876,225.8 L462.932,225.8 L462.932,244.976 L467.876,244.976 L467.876,225.8 Z M481.268,236.384 C481.268,234.08 480.188,233.12 477.884,233.12 L474.764,233.12 L474.764,230.192 L480.788,230.192 L480.788,225.8 L473.18,225.8 C470.996,225.8 469.82,226.664 469.82,228.944 L469.82,234.512 C469.82,236.192 470.444,237.512 473.156,237.512 L476.324,237.512 L476.324,240.584 L469.82,240.584 L469.82,244.976 L477.908,244.976 C480.068,244.976 481.268,244.16 481.268,241.952 L481.268,236.384 Z M495.548,225.8 L482.396,225.8 L482.396,230.192 L486.5,230.192 L486.5,244.976 L491.444,244.976 L491.444,230.192 L495.548,230.192 L495.548,225.8 Z" id="level-2"></path>
                    <path d="M670.068,10.944 C670.068,8.664 668.868,7.8 666.684,7.8 L657.036,7.8 L657.036,26.976 L661.98,26.976 L661.98,22.272 L666.684,22.272 C668.868,22.272 670.068,21.456 670.068,19.176 L670.068,10.944 Z M661.98,17.904 L661.98,12.192 L665.124,12.192 L665.124,17.904 L661.98,17.904 Z M684.468,20.64 C684.468,19.2 683.772,18.528 682.692,18.384 L682.692,18.336 C683.796,18 684.468,17.304 684.468,15.864 L684.468,10.944 C684.468,8.664 683.268,7.8 681.084,7.8 L671.772,7.8 L671.772,26.976 L676.716,26.976 L676.716,20.52 L679.524,20.52 L679.524,26.976 L684.468,26.976 L684.468,20.64 Z M676.716,16.152 L676.716,12.192 L679.524,12.192 L679.524,16.152 L676.716,16.152 Z M699.444,10.848 C699.444,8.664 698.244,7.8 696.156,7.8 L689.7,7.8 C687.516,7.8 686.412,8.808 686.412,10.848 L686.412,23.952 C686.412,26.136 687.636,26.976 689.7,26.976 L696.156,26.976 C698.34,26.976 699.444,26.088 699.444,23.952 L699.444,10.848 Z M691.356,22.584 L691.356,12.216 L694.5,12.216 L694.5,22.584 L691.356,22.584 Z M713.628,7.8 L708.684,7.8 L708.684,22.584 L706.092,22.584 L706.092,20.232 L701.148,20.232 L701.148,23.856 C701.148,26.136 702.324,26.976 704.508,26.976 L710.244,26.976 C712.428,26.976 713.628,26.136 713.628,23.856 L713.628,7.8 Z M726.708,22.584 L720.516,22.584 L720.516,19.488 L726.708,19.488 L726.708,15.12 L720.516,15.12 L720.516,12.192 L726.708,12.192 L726.708,7.8 L715.572,7.8 L715.572,26.976 L726.708,26.976 L726.708,22.584 Z M739.692,22.584 L733.356,22.584 L733.356,12.216 L739.692,12.192 L739.692,7.8 L731.7,7.8 C729.516,7.8 728.412,8.64 728.412,10.848 L728.412,23.952 C728.412,26.16 729.516,26.976 731.7,26.976 L739.692,26.976 L739.692,22.584 Z M753.732,7.8 L740.58,7.8 L740.58,12.192 L744.684,12.192 L744.684,26.976 L749.628,26.976 L749.628,12.192 L753.732,12.192 L753.732,7.8 Z M779.436,7.8 L775.5,7.8 L770.148,17.592 L764.724,7.8 L760.86,7.8 L760.86,26.976 L765.732,26.976 L765.732,18.408 L769.812,25.344 L770.46,25.344 L774.564,18.456 L774.564,26.976 L779.436,26.976 L779.436,7.8 Z M794.436,7.8 L784.764,7.8 C782.58,7.8 781.38,8.664 781.38,10.944 L781.38,26.976 L786.324,26.976 L786.324,21.816 L789.492,21.816 L789.492,26.976 L794.436,26.976 L794.436,7.8 Z M786.324,17.472 L786.324,12.192 L789.492,12.192 L789.492,17.472 L786.324,17.472 Z M810.492,7.8 L805.548,7.8 L805.548,16.176 L800.7,7.8 L796.38,7.8 L796.38,26.976 L801.324,26.976 L801.324,18.192 L806.364,26.976 L810.492,26.976 L810.492,7.8 Z M825.492,7.8 L815.82,7.8 C813.636,7.8 812.436,8.664 812.436,10.944 L812.436,26.976 L817.38,26.976 L817.38,21.816 L820.548,21.816 L820.548,26.976 L825.492,26.976 L825.492,7.8 Z M817.38,17.472 L817.38,12.192 L820.548,12.192 L820.548,17.472 L817.38,17.472 Z M839.748,17.016 L834.804,17.016 L834.804,22.584 L832.38,22.584 L832.38,12.216 L838.068,12.192 L838.068,7.8 L830.796,7.8 C828.612,7.8 827.436,8.664 827.436,10.944 L827.436,23.952 C827.436,26.16 828.612,26.976 830.772,26.976 L839.748,26.976 L839.748,17.016 Z M852.588,22.584 L846.396,22.584 L846.396,19.488 L852.588,19.488 L852.588,15.12 L846.396,15.12 L846.396,12.192 L852.588,12.192 L852.588,7.8 L841.452,7.8 L841.452,26.976 L852.588,26.976 L852.588,22.584 Z M866.988,20.64 C866.988,19.2 866.292,18.528 865.212,18.384 L865.212,18.336 C866.316,18 866.988,17.304 866.988,15.864 L866.988,10.944 C866.988,8.664 865.788,7.8 863.604,7.8 L854.292,7.8 L854.292,26.976 L859.236,26.976 L859.236,20.52 L862.044,20.52 L862.044,26.976 L866.988,26.976 L866.988,20.64 Z M859.236,16.152 L859.236,12.192 L862.044,12.192 L862.044,16.152 L859.236,16.152 Z" id="level-2"></path>
                    <path d="M873.636,211.544 C873.636,209.264 872.436,208.4 870.252,208.4 L860.604,208.4 L860.604,227.576 L865.548,227.576 L865.548,222.872 L870.252,222.872 C872.436,222.872 873.636,222.056 873.636,219.776 L873.636,211.544 Z M865.548,218.504 L865.548,212.792 L868.692,212.792 L868.692,218.504 L865.548,218.504 Z M888.036,221.24 C888.036,219.8 887.34,219.128 886.26,218.984 L886.26,218.936 C887.364,218.6 888.036,217.904 888.036,216.464 L888.036,211.544 C888.036,209.264 886.836,208.4 884.652,208.4 L875.34,208.4 L875.34,227.576 L880.284,227.576 L880.284,221.12 L883.092,221.12 L883.092,227.576 L888.036,227.576 L888.036,221.24 Z M880.284,216.752 L880.284,212.792 L883.092,212.792 L883.092,216.752 L880.284,216.752 Z M903.012,211.448 C903.012,209.264 901.812,208.4 899.724,208.4 L893.268,208.4 C891.084,208.4 889.98,209.408 889.98,211.448 L889.98,224.552 C889.98,226.736 891.204,227.576 893.268,227.576 L899.724,227.576 C901.908,227.576 903.012,226.688 903.012,224.552 L903.012,211.448 Z M894.924,223.184 L894.924,212.816 L898.068,212.816 L898.068,223.184 L894.924,223.184 Z M917.532,208.4 L904.38,208.4 L904.38,212.792 L908.484,212.792 L908.484,227.576 L913.428,227.576 L913.428,212.792 L917.532,212.792 L917.532,208.4 Z M931.932,211.448 C931.932,209.264 930.732,208.4 928.644,208.4 L922.188,208.4 C920.004,208.4 918.9,209.408 918.9,211.448 L918.9,224.552 C918.9,226.736 920.124,227.576 922.188,227.576 L928.644,227.576 C930.828,227.576 931.932,226.688 931.932,224.552 L931.932,211.448 Z M923.844,223.184 L923.844,212.816 L926.988,212.816 L926.988,223.184 L923.844,223.184 Z M946.452,208.4 L933.3,208.4 L933.3,212.792 L937.404,212.792 L937.404,227.576 L942.348,227.576 L942.348,212.792 L946.452,212.792 L946.452,208.4 Z M960.54,208.4 L955.596,208.4 L955.596,216.272 L952.428,216.272 L952.428,208.4 L947.484,208.4 L947.484,217.568 C947.484,219.848 948.66,220.664 950.844,220.664 L951.564,220.664 L951.564,227.576 L956.508,227.576 L956.508,220.664 L957.132,220.664 C959.316,220.664 960.54,219.848 960.54,217.568 L960.54,208.4 Z M975.18,211.544 C975.18,209.264 973.98,208.4 971.796,208.4 L962.148,208.4 L962.148,227.576 L967.092,227.576 L967.092,222.872 L971.796,222.872 C973.98,222.872 975.18,222.056 975.18,219.776 L975.18,211.544 Z M967.092,218.504 L967.092,212.792 L970.236,212.792 L970.236,218.504 L967.092,218.504 Z M988.02,223.184 L981.828,223.184 L981.828,220.088 L988.02,220.088 L988.02,215.72 L981.828,215.72 L981.828,212.792 L988.02,212.792 L988.02,208.4 L976.884,208.4 L976.884,227.576 L988.02,227.576 L988.02,223.184 Z M1002.42,221.24 C1002.42,219.8 1001.724,219.128 1000.644,218.984 L1000.644,218.936 C1001.748,218.6 1002.42,217.904 1002.42,216.464 L1002.42,211.544 C1002.42,209.264 1001.22,208.4 999.036,208.4 L989.724,208.4 L989.724,227.576 L994.668,227.576 L994.668,221.12 L997.476,221.12 L997.476,227.576 L1002.42,227.576 L1002.42,221.24 Z M994.668,216.752 L994.668,212.792 L997.476,212.792 L997.476,216.752 L994.668,216.752 Z" id="level-2"></path>
                    <path d="M952.848,93.4 L947.904,93.4 L947.904,108.184 L944.76,108.184 L944.76,93.4 L939.816,93.4 L939.816,109.456 C939.816,111.736 940.992,112.576 943.176,112.576 L949.464,112.576 C951.648,112.576 952.848,111.736 952.848,109.456 L952.848,93.4 Z M967.824,105.664 C967.824,104.224 966.864,103.096 965.832,102.952 L965.832,102.88 C966.864,102.568 967.824,101.584 967.824,100.144 L967.824,93.4 L962.904,93.4 L962.904,100.72 L959.736,100.72 L959.736,93.4 L954.792,93.4 L954.792,100.12 C954.792,101.56 955.848,102.592 956.784,102.904 L956.784,102.952 C955.8,103.12 954.792,104.128 954.792,105.568 L954.792,112.576 L959.736,112.576 L959.736,105.088 L962.904,105.088 L962.904,112.576 L967.824,112.576 L967.824,105.664 Z M988.224,106.24 C988.224,104.8 987.528,104.128 986.448,103.984 L986.448,103.936 C987.552,103.6 988.224,102.904 988.224,101.464 L988.224,96.544 C988.224,94.264 987.024,93.4 984.84,93.4 L975.528,93.4 L975.528,112.576 L980.472,112.576 L980.472,106.12 L983.28,106.12 L983.28,112.576 L988.224,112.576 L988.224,106.24 Z M980.472,101.752 L980.472,97.792 L983.28,97.792 L983.28,101.752 L980.472,101.752 Z M1001.304,108.184 L995.112,108.184 L995.112,105.088 L1001.304,105.088 L1001.304,100.72 L995.112,100.72 L995.112,97.792 L1001.304,97.792 L1001.304,93.4 L990.168,93.4 L990.168,112.576 L1001.304,112.576 L1001.304,108.184 Z M1014.456,103.984 C1014.456,101.68 1013.376,100.72 1011.072,100.72 L1007.952,100.72 L1007.952,97.792 L1013.976,97.792 L1013.976,93.4 L1006.368,93.4 C1004.184,93.4 1003.008,94.264 1003.008,96.544 L1003.008,102.112 C1003.008,103.792 1003.632,105.112 1006.344,105.112 L1009.512,105.112 L1009.512,108.184 L1003.008,108.184 L1003.008,112.576 L1011.096,112.576 C1013.256,112.576 1014.456,111.76 1014.456,109.552 L1014.456,103.984 Z M1027.296,108.184 L1021.104,108.184 L1021.104,105.088 L1027.296,105.088 L1027.296,100.72 L1021.104,100.72 L1021.104,97.792 L1027.296,97.792 L1027.296,93.4 L1016.16,93.4 L1016.16,112.576 L1027.296,112.576 L1027.296,108.184 Z M1042.056,93.4 L1032.384,93.4 C1030.2,93.4 1029,94.264 1029,96.544 L1029,112.576 L1033.944,112.576 L1033.944,107.416 L1037.112,107.416 L1037.112,112.576 L1042.056,112.576 L1042.056,93.4 Z M1033.944,103.072 L1033.944,97.792 L1037.112,97.792 L1037.112,103.072 L1033.944,103.072 Z M1056.696,106.24 C1056.696,104.8 1056,104.128 1054.92,103.984 L1054.92,103.936 C1056.024,103.6 1056.696,102.904 1056.696,101.464 L1056.696,96.544 C1056.696,94.264 1055.496,93.4 1053.312,93.4 L1044,93.4 L1044,112.576 L1048.944,112.576 L1048.944,106.12 L1051.752,106.12 L1051.752,112.576 L1056.696,112.576 L1056.696,106.24 Z M1048.944,101.752 L1048.944,97.792 L1051.752,97.792 L1051.752,101.752 L1048.944,101.752 Z M1069.92,108.184 L1063.584,108.184 L1063.584,97.816 L1069.92,97.792 L1069.92,93.4 L1061.928,93.4 C1059.744,93.4 1058.64,94.24 1058.64,96.448 L1058.64,109.552 C1058.64,111.76 1059.744,112.576 1061.928,112.576 L1069.92,112.576 L1069.92,108.184 Z M1084.728,93.4 L1079.784,93.4 L1079.784,100.72 L1076.328,100.72 L1076.328,93.4 L1071.384,93.4 L1071.384,112.576 L1076.328,112.576 L1076.328,105.064 L1079.784,105.064 L1079.784,112.576 L1084.728,112.576 L1084.728,93.4 Z M1097.808,108.184 L1091.616,108.184 L1091.616,105.088 L1097.808,105.088 L1097.808,100.72 L1091.616,100.72 L1091.616,97.792 L1097.808,97.792 L1097.808,93.4 L1086.672,93.4 L1086.672,112.576 L1097.808,112.576 L1097.808,108.184 Z M1112.208,106.24 C1112.208,104.8 1111.512,104.128 1110.432,103.984 L1110.432,103.936 C1111.536,103.6 1112.208,102.904 1112.208,101.464 L1112.208,96.544 C1112.208,94.264 1111.008,93.4 1108.824,93.4 L1099.512,93.4 L1099.512,112.576 L1104.456,112.576 L1104.456,106.12 L1107.264,106.12 L1107.264,112.576 L1112.208,112.576 L1112.208,106.24 Z M1104.456,101.752 L1104.456,97.792 L1107.264,97.792 L1107.264,101.752 L1104.456,101.752 Z" id="level-2"></path>
                    <path d="M1078.58,166.848 C1078.58,164.64 1077.308,163.8 1075.268,163.8 L1065.524,163.8 L1065.524,182.976 L1075.268,182.976 C1077.404,182.976 1078.58,182.016 1078.58,179.952 L1078.58,166.848 Z M1070.468,178.584 L1070.468,168.216 L1073.636,168.216 L1073.636,178.584 L1070.468,178.584 Z M1093.556,166.944 C1093.556,164.664 1092.356,163.8 1090.172,163.8 L1083.908,163.8 C1081.724,163.8 1080.524,164.664 1080.524,166.944 L1080.524,182.976 L1085.468,182.976 L1085.468,177.816 L1088.612,177.816 L1088.612,182.976 L1093.556,182.976 L1093.556,166.944 Z M1085.468,173.472 L1085.468,168.192 L1088.66,168.192 L1088.66,173.472 L1085.468,173.472 Z M1108.076,163.8 L1094.924,163.8 L1094.924,168.192 L1099.028,168.192 L1099.028,182.976 L1103.972,182.976 L1103.972,168.192 L1108.076,168.192 L1108.076,163.8 Z M1122.476,166.944 C1122.476,164.664 1121.276,163.8 1119.092,163.8 L1112.828,163.8 C1110.644,163.8 1109.444,164.664 1109.444,166.944 L1109.444,182.976 L1114.388,182.976 L1114.388,177.816 L1117.532,177.816 L1117.532,182.976 L1122.476,182.976 L1122.476,166.944 Z M1114.388,173.472 L1114.388,168.192 L1117.58,168.192 L1117.58,173.472 L1114.388,173.472 Z M1142.756,163.8 L1129.604,163.8 L1129.604,168.192 L1133.708,168.192 L1133.708,182.976 L1138.652,182.976 L1138.652,168.192 L1142.756,168.192 L1142.756,163.8 Z M1155.26,178.584 L1149.068,178.584 L1149.068,175.488 L1155.26,175.488 L1155.26,171.12 L1149.068,171.12 L1149.068,168.192 L1155.26,168.192 L1155.26,163.8 L1144.124,163.8 L1144.124,182.976 L1155.26,182.976 L1155.26,178.584 Z M1168.244,178.584 L1161.908,178.584 L1161.908,168.216 L1168.244,168.192 L1168.244,163.8 L1160.252,163.8 C1158.068,163.8 1156.964,164.64 1156.964,166.848 L1156.964,179.952 C1156.964,182.16 1158.068,182.976 1160.252,182.976 L1168.244,182.976 L1168.244,178.584 Z M1183.052,163.8 L1178.108,163.8 L1178.108,171.12 L1174.652,171.12 L1174.652,163.8 L1169.708,163.8 L1169.708,182.976 L1174.652,182.976 L1174.652,175.464 L1178.108,175.464 L1178.108,182.976 L1183.052,182.976 L1183.052,163.8 Z M1198.028,166.944 C1198.028,164.664 1196.828,163.8 1194.644,163.8 L1184.996,163.8 L1184.996,182.976 L1189.94,182.976 L1189.94,168.192 L1193.084,168.192 L1193.084,182.976 L1198.028,182.976 L1198.028,166.944 Z M1204.916,163.8 L1199.972,163.8 L1199.972,182.976 L1204.916,182.976 L1204.916,163.8 Z M1218.14,178.584 L1211.804,178.584 L1211.804,168.216 L1218.14,168.192 L1218.14,163.8 L1210.148,163.8 C1207.964,163.8 1206.86,164.64 1206.86,166.848 L1206.86,179.952 C1206.86,182.16 1207.964,182.976 1210.148,182.976 L1218.14,182.976 L1218.14,178.584 Z M1224.548,163.8 L1219.604,163.8 L1219.604,182.976 L1224.548,182.976 L1224.548,163.8 Z M1239.524,166.944 C1239.524,164.664 1238.324,163.8 1236.14,163.8 L1229.876,163.8 C1227.692,163.8 1226.492,164.664 1226.492,166.944 L1226.492,182.976 L1231.436,182.976 L1231.436,177.816 L1234.58,177.816 L1234.58,182.976 L1239.524,182.976 L1239.524,166.944 Z M1231.436,173.472 L1231.436,168.192 L1234.628,168.192 L1234.628,173.472 L1231.436,173.472 Z M1254.5,166.944 C1254.5,164.664 1253.3,163.8 1251.116,163.8 L1241.468,163.8 L1241.468,182.976 L1246.412,182.976 L1246.412,168.192 L1249.556,168.192 L1249.556,182.976 L1254.5,182.976 L1254.5,166.944 Z" id="level-2"></path>
                    <path d="M1047.188,46.344 L1043.892,46.344 L1043.892,50.056 L1042.276,50.056 L1042.276,43.144 L1046.068,43.128 L1046.068,40.2 L1041.22,40.2 C1039.764,40.2 1038.98,40.776 1038.98,42.296 L1038.98,50.968 C1038.98,52.44 1039.764,52.984 1041.204,52.984 L1047.188,52.984 L1047.188,46.344 Z M1057.012,42.296 C1057.012,40.776 1056.212,40.2 1054.756,40.2 L1050.58,40.2 C1049.124,40.2 1048.324,40.776 1048.324,42.296 L1048.324,52.984 L1051.62,52.984 L1051.62,49.544 L1053.716,49.544 L1053.716,52.984 L1057.012,52.984 L1057.012,42.296 Z M1051.62,46.648 L1051.62,43.128 L1053.748,43.128 L1053.748,46.648 L1051.62,46.648 Z M1071.716,42.296 C1071.716,40.776 1070.884,40.2 1069.428,40.2 L1058.308,40.2 L1058.308,52.984 L1061.604,52.984 L1061.604,43.128 L1063.364,43.128 L1063.364,52.984 L1066.66,52.984 L1066.66,43.128 L1068.42,43.128 L1068.42,52.984 L1071.716,52.984 L1071.716,42.296 Z M1080.436,50.056 L1076.308,50.056 L1076.308,47.992 L1080.436,47.992 L1080.436,45.08 L1076.308,45.08 L1076.308,43.128 L1080.436,43.128 L1080.436,40.2 L1073.012,40.2 L1073.012,52.984 L1080.436,52.984 L1080.436,50.056 Z M1090.036,48.76 C1090.036,47.8 1089.572,47.352 1088.852,47.256 L1088.852,47.224 C1089.588,47 1090.036,46.536 1090.036,45.576 L1090.036,42.296 C1090.036,40.776 1089.236,40.2 1087.78,40.2 L1081.572,40.2 L1081.572,52.984 L1084.868,52.984 L1084.868,48.68 L1086.74,48.68 L1086.74,52.984 L1090.036,52.984 L1090.036,48.76 Z M1084.868,45.768 L1084.868,43.128 L1086.74,43.128 L1086.74,45.768 L1084.868,45.768 Z" id="level-1"></path>
                    <path d="M294.432,144.056 L290.208,144.056 L290.208,137.144 L294.432,137.128 L294.432,134.2 L289.104,134.2 C287.648,134.2 286.912,134.76 286.912,136.232 L286.912,144.968 C286.912,146.44 287.648,146.984 289.104,146.984 L294.432,146.984 L294.432,144.056 Z M304.096,136.296 C304.096,134.776 303.296,134.2 301.84,134.2 L297.664,134.2 C296.208,134.2 295.408,134.776 295.408,136.296 L295.408,146.984 L298.704,146.984 L298.704,143.544 L300.8,143.544 L300.8,146.984 L304.096,146.984 L304.096,136.296 Z M298.704,140.648 L298.704,137.128 L300.832,137.128 L300.832,140.648 L298.704,140.648 Z M313.856,142.76 C313.856,141.8 313.392,141.352 312.672,141.256 L312.672,141.224 C313.408,141 313.856,140.536 313.856,139.576 L313.856,136.296 C313.856,134.776 313.056,134.2 311.6,134.2 L305.392,134.2 L305.392,146.984 L308.688,146.984 L308.688,142.68 L310.56,142.68 L310.56,146.984 L313.856,146.984 L313.856,142.76 Z M308.688,139.768 L308.688,137.128 L310.56,137.128 L310.56,139.768 L308.688,139.768 Z M323.856,136.232 C323.856,134.76 323.008,134.2 321.648,134.2 L315.152,134.2 L315.152,146.984 L321.648,146.984 C323.072,146.984 323.856,146.344 323.856,144.968 L323.856,136.232 Z M318.448,144.056 L318.448,137.144 L320.56,137.144 L320.56,144.056 L318.448,144.056 Z M336.624,141.256 C336.624,139.72 335.904,139.08 334.368,139.08 L332.288,139.08 L332.288,137.128 L336.304,137.128 L336.304,134.2 L331.232,134.2 C329.776,134.2 328.992,134.776 328.992,136.296 L328.992,140.008 C328.992,141.128 329.408,142.008 331.216,142.008 L333.328,142.008 L333.328,144.056 L328.992,144.056 L328.992,146.984 L334.384,146.984 C335.824,146.984 336.624,146.44 336.624,144.968 L336.624,141.256 Z M345.184,144.056 L341.056,144.056 L341.056,134.2 L337.76,134.2 L337.76,146.984 L345.184,146.984 L345.184,144.056 Z M349.456,134.2 L346.16,134.2 L346.16,146.984 L349.456,146.984 L349.456,134.2 Z M359.44,136.296 C359.44,134.776 358.64,134.2 357.184,134.2 L350.752,134.2 L350.752,146.984 L354.048,146.984 L354.048,137.128 L356.144,137.128 L356.144,146.984 L359.44,146.984 L359.44,136.296 Z M368.944,140.344 L365.648,140.344 L365.648,144.056 L364.032,144.056 L364.032,137.144 L367.824,137.128 L367.824,134.2 L362.976,134.2 C361.52,134.2 360.736,134.776 360.736,136.296 L360.736,144.968 C360.736,146.44 361.52,146.984 362.96,146.984 L368.944,146.984 L368.944,140.344 Z M377.504,144.056 L373.376,144.056 L373.376,141.992 L377.504,141.992 L377.504,139.08 L373.376,139.08 L373.376,137.128 L377.504,137.128 L377.504,134.2 L370.08,134.2 L370.08,146.984 L377.504,146.984 L377.504,144.056 Z M387.104,142.76 C387.104,141.8 386.64,141.352 385.92,141.256 L385.92,141.224 C386.656,141 387.104,140.536 387.104,139.576 L387.104,136.296 C387.104,134.776 386.304,134.2 384.848,134.2 L378.64,134.2 L378.64,146.984 L381.936,146.984 L381.936,142.68 L383.808,142.68 L383.808,146.984 L387.104,146.984 L387.104,142.76 Z M381.936,139.768 L381.936,137.128 L383.808,137.128 L383.808,139.768 L381.936,139.768 Z" id="level-1"></path>
                    <path d="M575.668,218.656 C575.668,217.12 574.948,216.48 573.412,216.48 L571.332,216.48 L571.332,214.528 L575.348,214.528 L575.348,211.6 L570.276,211.6 C568.82,211.6 568.036,212.176 568.036,213.696 L568.036,217.408 C568.036,218.528 568.452,219.408 570.26,219.408 L572.372,219.408 L572.372,221.456 L568.036,221.456 L568.036,224.384 L573.428,224.384 C574.868,224.384 575.668,223.84 575.668,222.368 L575.668,218.656 Z M585.492,213.696 C585.492,212.176 584.692,211.6 583.236,211.6 L576.804,211.6 L576.804,224.384 L580.1,224.384 L580.1,221.248 L583.236,221.248 C584.692,221.248 585.492,220.704 585.492,219.184 L585.492,213.696 Z M580.1,218.336 L580.1,214.528 L582.196,214.528 L582.196,218.336 L580.1,218.336 Z M595.332,211.6 L588.884,211.6 C587.428,211.6 586.628,212.176 586.628,213.696 L586.628,224.384 L589.924,224.384 L589.924,220.944 L592.036,220.944 L592.036,224.384 L595.332,224.384 L595.332,211.6 Z M589.924,218.048 L589.924,214.528 L592.036,214.528 L592.036,218.048 L589.924,218.048 Z M604.148,221.456 L599.924,221.456 L599.924,214.544 L604.148,214.528 L604.148,211.6 L598.82,211.6 C597.364,211.6 596.628,212.16 596.628,213.632 L596.628,222.368 C596.628,223.84 597.364,224.384 598.82,224.384 L604.148,224.384 L604.148,221.456 Z M612.548,221.456 L608.42,221.456 L608.42,219.392 L612.548,219.392 L612.548,216.48 L608.42,216.48 L608.42,214.528 L612.548,214.528 L612.548,211.6 L605.124,211.6 L605.124,224.384 L612.548,224.384 L612.548,221.456 Z M626.42,211.6 L623.124,211.6 L623.124,216.48 L620.82,216.48 L620.82,211.6 L617.524,211.6 L617.524,224.384 L620.82,224.384 L620.82,219.376 L623.124,219.376 L623.124,224.384 L626.42,224.384 L626.42,211.6 Z M635.14,221.456 L631.012,221.456 L631.012,219.392 L635.14,219.392 L635.14,216.48 L631.012,216.48 L631.012,214.528 L635.14,214.528 L635.14,211.6 L627.716,211.6 L627.716,224.384 L635.14,224.384 L635.14,221.456 Z M644.98,211.6 L638.532,211.6 C637.076,211.6 636.276,212.176 636.276,213.696 L636.276,224.384 L639.572,224.384 L639.572,220.944 L641.684,220.944 L641.684,224.384 L644.98,224.384 L644.98,211.6 Z M639.572,218.048 L639.572,214.528 L641.684,214.528 L641.684,218.048 L639.572,218.048 Z M654.98,213.632 C654.98,212.16 654.132,211.6 652.772,211.6 L646.276,211.6 L646.276,224.384 L652.772,224.384 C654.196,224.384 654.98,223.744 654.98,222.368 L654.98,213.632 Z M649.572,221.456 L649.572,214.544 L651.684,214.544 L651.684,221.456 L649.572,221.456 Z" id="level-1"></path>
                    <path d="M1099.56,250.056 L1095.336,250.056 L1095.336,243.144 L1099.56,243.128 L1099.56,240.2 L1094.232,240.2 C1092.776,240.2 1092.04,240.76 1092.04,242.232 L1092.04,250.968 C1092.04,252.44 1092.776,252.984 1094.232,252.984 L1099.56,252.984 L1099.56,250.056 Z M1109.24,240.2 L1102.792,240.2 C1101.336,240.2 1100.536,240.776 1100.536,242.296 L1100.536,252.984 L1103.832,252.984 L1103.832,249.544 L1105.944,249.544 L1105.944,252.984 L1109.24,252.984 L1109.24,240.2 Z M1103.832,246.648 L1103.832,243.128 L1105.944,243.128 L1105.944,246.648 L1103.832,246.648 Z M1118.92,240.2 L1110.152,240.2 L1110.152,243.128 L1112.888,243.128 L1112.888,252.984 L1116.184,252.984 L1116.184,243.128 L1118.92,243.128 L1118.92,240.2 Z M1132.36,242.296 C1132.36,240.776 1131.56,240.2 1130.104,240.2 L1123.672,240.2 L1123.672,252.984 L1126.968,252.984 L1126.968,249.848 L1130.104,249.848 C1131.56,249.848 1132.36,249.304 1132.36,247.784 L1132.36,242.296 Z M1126.968,246.936 L1126.968,243.128 L1129.064,243.128 L1129.064,246.936 L1126.968,246.936 Z M1140.92,250.056 L1136.792,250.056 L1136.792,247.992 L1140.92,247.992 L1140.92,245.08 L1136.792,245.08 L1136.792,243.128 L1140.92,243.128 L1140.92,240.2 L1133.496,240.2 L1133.496,252.984 L1140.92,252.984 L1140.92,250.056 Z M1150.52,248.76 C1150.52,247.8 1150.056,247.352 1149.336,247.256 L1149.336,247.224 C1150.072,247 1150.52,246.536 1150.52,245.576 L1150.52,242.296 C1150.52,240.776 1149.72,240.2 1148.264,240.2 L1142.056,240.2 L1142.056,252.984 L1145.352,252.984 L1145.352,248.68 L1147.224,248.68 L1147.224,252.984 L1150.52,252.984 L1150.52,248.76 Z M1145.352,245.768 L1145.352,243.128 L1147.224,243.128 L1147.224,245.768 L1145.352,245.768 Z M1159.448,247.256 C1159.448,245.72 1158.728,245.08 1157.192,245.08 L1155.112,245.08 L1155.112,243.128 L1159.128,243.128 L1159.128,240.2 L1154.056,240.2 C1152.6,240.2 1151.816,240.776 1151.816,242.296 L1151.816,246.008 C1151.816,247.128 1152.232,248.008 1154.04,248.008 L1156.152,248.008 L1156.152,250.056 L1151.816,250.056 L1151.816,252.984 L1157.208,252.984 C1158.648,252.984 1159.448,252.44 1159.448,250.968 L1159.448,247.256 Z M1169.272,242.232 C1169.272,240.776 1168.472,240.2 1167.08,240.2 L1162.776,240.2 C1161.32,240.2 1160.584,240.872 1160.584,242.232 L1160.584,250.968 C1160.584,252.424 1161.4,252.984 1162.776,252.984 L1167.08,252.984 C1168.536,252.984 1169.272,252.392 1169.272,250.968 L1169.272,242.232 Z M1163.88,250.056 L1163.88,243.144 L1165.976,243.144 L1165.976,250.056 L1163.88,250.056 Z M1179.976,240.2 L1176.68,240.2 L1176.68,245.784 L1173.448,240.2 L1170.568,240.2 L1170.568,252.984 L1173.864,252.984 L1173.864,247.128 L1177.224,252.984 L1179.976,252.984 L1179.976,240.2 Z" id="level-1"></path>
                    <path d="M1187.56194,2.232 C1187.56194,0.76 1186.71394,0.2 1185.35394,0.2 L1178.85794,0.2 L1178.85794,12.984 L1185.35394,12.984 C1186.77794,12.984 1187.56194,12.344 1187.56194,10.968 L1187.56194,2.232 Z M1182.15394,10.056 L1182.15394,3.144 L1184.26594,3.144 L1184.26594,10.056 L1182.15394,10.056 Z M1197.54594,2.232 C1197.54594,0.776 1196.74594,0.2 1195.35394,0.2 L1191.04994,0.2 C1189.59394,0.2 1188.85794,0.872 1188.85794,2.232 L1188.85794,10.968 C1188.85794,12.424 1189.67394,12.984 1191.04994,12.984 L1195.35394,12.984 C1196.80994,12.984 1197.54594,12.392 1197.54594,10.968 L1197.54594,2.232 Z M1192.15394,10.056 L1192.15394,3.144 L1194.24994,3.144 L1194.24994,10.056 L1192.15394,10.056 Z M1207.04994,6.344 L1203.75394,6.344 L1203.75394,10.056 L1202.13794,10.056 L1202.13794,3.144 L1205.92994,3.128 L1205.92994,0.2 L1201.08194,0.2 C1199.62594,0.2 1198.84194,0.776 1198.84194,2.296 L1198.84194,10.968 C1198.84194,12.44 1199.62594,12.984 1201.06594,12.984 L1207.04994,12.984 L1207.04994,6.344 Z M1220.71394,2.296 C1220.71394,0.776 1219.91394,0.2 1218.45794,0.2 L1212.02594,0.2 L1212.02594,12.984 L1215.32194,12.984 L1215.32194,9.848 L1218.45794,9.848 C1219.91394,9.848 1220.71394,9.304 1220.71394,7.784 L1220.71394,2.296 Z M1215.32194,6.936 L1215.32194,3.128 L1217.41794,3.128 L1217.41794,6.936 L1215.32194,6.936 Z M1229.27394,10.056 L1225.14594,10.056 L1225.14594,7.992 L1229.27394,7.992 L1229.27394,5.08 L1225.14594,5.08 L1225.14594,3.128 L1229.27394,3.128 L1229.27394,0.2 L1221.84994,0.2 L1221.84994,12.984 L1229.27394,12.984 L1229.27394,10.056 Z M1238.87394,8.76 C1238.87394,7.8 1238.40994,7.352 1237.68994,7.256 L1237.68994,7.224 C1238.42594,7 1238.87394,6.536 1238.87394,5.576 L1238.87394,2.296 C1238.87394,0.776 1238.07394,0.2 1236.61794,0.2 L1230.40994,0.2 L1230.40994,12.984 L1233.70594,12.984 L1233.70594,8.68 L1235.57794,8.68 L1235.57794,12.984 L1238.87394,12.984 L1238.87394,8.76 Z M1233.70594,5.768 L1233.70594,3.128 L1235.57794,3.128 L1235.57794,5.768 L1233.70594,5.768 Z M1247.80194,7.256 C1247.80194,5.72 1247.08194,5.08 1245.54594,5.08 L1243.46594,5.08 L1243.46594,3.128 L1247.48194,3.128 L1247.48194,0.2 L1242.40994,0.2 C1240.95394,0.2 1240.16994,0.776 1240.16994,2.296 L1240.16994,6.008 C1240.16994,7.128 1240.58594,8.008 1242.39394,8.008 L1244.50594,8.008 L1244.50594,10.056 L1240.16994,10.056 L1240.16994,12.984 L1245.56194,12.984 C1247.00194,12.984 1247.80194,12.44 1247.80194,10.968 L1247.80194,7.256 Z M1257.62594,2.232 C1257.62594,0.776 1256.82594,0.2 1255.43394,0.2 L1251.12994,0.2 C1249.67394,0.2 1248.93794,0.872 1248.93794,2.232 L1248.93794,10.968 C1248.93794,12.424 1249.75394,12.984 1251.12994,12.984 L1255.43394,12.984 C1256.88994,12.984 1257.62594,12.392 1257.62594,10.968 L1257.62594,2.232 Z M1252.23394,10.056 L1252.23394,3.144 L1254.32994,3.144 L1254.32994,10.056 L1252.23394,10.056 Z M1268.32994,0.2 L1265.03394,0.2 L1265.03394,5.784 L1261.80194,0.2 L1258.92194,0.2 L1258.92194,12.984 L1262.21794,12.984 L1262.21794,7.128 L1265.57794,12.984 L1268.32994,12.984 L1268.32994,0.2 Z" id="level-1"></path>
                    <path d="M84.2620625,234.2 L80.9660625,234.2 L80.9660625,239.08 L78.6620625,239.08 L78.6620625,234.2 L75.3660625,234.2 L75.3660625,246.984 L78.6620625,246.984 L78.6620625,241.976 L80.9660625,241.976 L80.9660625,246.984 L84.2620625,246.984 L84.2620625,234.2 Z M94.2460625,234.2 L90.9500625,234.2 L90.9500625,244.056 L88.8540625,244.056 L88.8540625,234.2 L85.5580625,234.2 L85.5580625,244.904 C85.5580625,246.424 86.3420625,246.984 87.7980625,246.984 L91.9900625,246.984 C93.4460625,246.984 94.2460625,246.424 94.2460625,244.904 L94.2460625,234.2 Z M103.174063,241.256 C103.174063,239.72 102.454063,239.08 100.918063,239.08 L98.8380625,239.08 L98.8380625,237.128 L102.854062,237.128 L102.854062,234.2 L97.7820625,234.2 C96.3260625,234.2 95.5420625,234.776 95.5420625,236.296 L95.5420625,240.008 C95.5420625,241.128 95.9580625,242.008 97.7660625,242.008 L99.8780625,242.008 L99.8780625,244.056 L95.5420625,244.056 L95.5420625,246.984 L100.934063,246.984 C102.374063,246.984 103.174063,246.44 103.174063,244.968 L103.174063,241.256 Z M112.774062,242.072 C112.774062,241.112 112.326063,240.68 111.670063,240.568 L111.670063,240.536 C112.342062,240.296 112.774062,239.848 112.774062,238.888 L112.774062,236.296 C112.774062,234.776 111.974063,234.2 110.518062,234.2 L104.310063,234.2 L104.310063,246.984 L110.502062,246.984 C111.926063,246.984 112.774062,246.2 112.774062,244.904 L112.774062,242.072 Z M107.606063,239.08 L107.606063,237.128 L109.478062,237.128 L109.478062,239.08 L107.606063,239.08 Z M107.606063,244.056 L107.606063,241.992 L109.478062,241.992 L109.478062,244.056 L107.606063,244.056 Z M122.774062,234.2 L116.326063,234.2 C114.870063,234.2 114.070063,234.776 114.070063,236.296 L114.070063,246.984 L117.366062,246.984 L117.366062,243.544 L119.478062,243.544 L119.478062,246.984 L122.774062,246.984 L122.774062,234.2 Z M117.366062,240.648 L117.366062,237.128 L119.478062,237.128 L119.478062,240.648 L117.366062,240.648 Z M133.478062,234.2 L130.182063,234.2 L130.182063,239.784 L126.950063,234.2 L124.070063,234.2 L124.070063,246.984 L127.366062,246.984 L127.366062,241.128 L130.726063,246.984 L133.478062,246.984 L133.478062,234.2 Z M143.478062,236.232 C143.478062,234.76 142.630063,234.2 141.270062,234.2 L134.774063,234.2 L134.774063,246.984 L141.270062,246.984 C142.694063,246.984 143.478062,246.344 143.478062,244.968 L143.478062,236.232 Z M138.070063,244.056 L138.070063,237.144 L140.182063,237.144 L140.182063,244.056 L138.070063,244.056 Z" id="level-1"></path>
                    <path d="M163.650062,96.6 L160.354062,96.6 L160.354062,102.28 C160.354062,103.784 159.778062,105.496 159.330062,106.328 L159.298062,106.328 C158.866062,105.512 158.258062,103.96 158.258062,102.28 L158.258062,96.6 L154.962062,96.6 L154.962062,102.792 C154.962062,103.24 154.994062,103.56 155.074062,103.992 C154.994062,104.824 154.594062,105.848 154.338062,106.312 L154.274062,106.312 C153.842062,105.496 153.234062,103.96 153.234062,102.28 L153.234062,96.6 L149.938062,96.6 L149.938062,102.792 C149.938062,105.4 151.394062,107.544 152.658062,109.384 L155.922062,109.384 C156.194062,108.984 156.530062,108.392 156.770062,107.848 L156.818062,107.848 C157.090062,108.392 157.394062,108.936 157.666062,109.384 L160.930062,109.384 C162.290062,107.512 163.650062,105.208 163.650062,102.696 L163.650062,96.6 Z M173.490062,96.6 L167.042062,96.6 C165.586062,96.6 164.786062,97.176 164.786062,98.696 L164.786062,109.384 L168.082062,109.384 L168.082062,105.944 L170.194062,105.944 L170.194062,109.384 L173.490062,109.384 L173.490062,96.6 Z M168.082062,103.048 L168.082062,99.528 L170.194062,99.528 L170.194062,103.048 L168.082062,103.048 Z M182.210062,106.456 L178.082062,106.456 L178.082062,96.6 L174.786062,96.6 L174.786062,109.384 L182.210062,109.384 L182.210062,106.456 Z M191.650062,104.136 C191.650062,102.984 190.690062,102.2 189.746062,102.2 L189.538062,102.216 L191.634062,96.6 L188.354062,96.6 L186.578062,101.864 L186.482062,101.864 L186.482062,96.6 L183.186062,96.6 L183.186062,109.384 L186.482062,109.384 L186.482062,104.776 L188.354062,104.776 L188.354062,109.384 L191.650062,109.384 L191.650062,104.136 Z M200.146062,106.456 L196.018062,106.456 L196.018062,104.392 L200.146062,104.392 L200.146062,101.48 L196.018062,101.48 L196.018062,99.528 L200.146062,99.528 L200.146062,96.6 L192.722062,96.6 L192.722062,109.384 L200.146062,109.384 L200.146062,106.456 Z M209.746062,105.16 C209.746062,104.2 209.282062,103.752 208.562062,103.656 L208.562062,103.624 C209.298062,103.4 209.746062,102.936 209.746062,101.976 L209.746062,98.696 C209.746062,97.176 208.946062,96.6 207.490062,96.6 L201.282062,96.6 L201.282062,109.384 L204.578062,109.384 L204.578062,105.08 L206.450062,105.08 L206.450062,109.384 L209.746062,109.384 L209.746062,105.16 Z M204.578062,102.168 L204.578062,99.528 L206.450062,99.528 L206.450062,102.168 L204.578062,102.168 Z" id="level-1"></path>
                    <path d="M270.608,19.072 C270.608,18.112 270.16,17.68 269.504,17.568 L269.504,17.536 C270.176,17.296 270.608,16.848 270.608,15.888 L270.608,13.296 C270.608,11.776 269.808,11.2 268.352,11.2 L262.144,11.2 L262.144,23.984 L268.336,23.984 C269.76,23.984 270.608,23.2 270.608,21.904 L270.608,19.072 Z M265.44,16.08 L265.44,14.128 L267.312,14.128 L267.312,16.08 L265.44,16.08 Z M265.44,21.056 L265.44,18.992 L267.312,18.992 L267.312,21.056 L265.44,21.056 Z M280.592,11.2 L277.296,11.2 L277.296,21.056 L275.2,21.056 L275.2,11.2 L271.904,11.2 L271.904,21.904 C271.904,23.424 272.688,23.984 274.144,23.984 L278.336,23.984 C279.792,23.984 280.592,23.424 280.592,21.904 L280.592,11.2 Z M289.52,18.256 C289.52,16.72 288.8,16.08 287.264,16.08 L285.184,16.08 L285.184,14.128 L289.2,14.128 L289.2,11.2 L284.128,11.2 C282.672,11.2 281.888,11.776 281.888,13.296 L281.888,17.008 C281.888,18.128 282.304,19.008 284.112,19.008 L286.224,19.008 L286.224,21.056 L281.888,21.056 L281.888,23.984 L287.28,23.984 C288.72,23.984 289.52,23.44 289.52,21.968 L289.52,18.256 Z M302.96,19.76 C302.96,18.8 302.496,18.352 301.776,18.256 L301.776,18.224 C302.512,18 302.96,17.536 302.96,16.576 L302.96,13.296 C302.96,11.776 302.16,11.2 300.704,11.2 L294.496,11.2 L294.496,23.984 L297.792,23.984 L297.792,19.68 L299.664,19.68 L299.664,23.984 L302.96,23.984 L302.96,19.76 Z M297.792,16.768 L297.792,14.128 L299.664,14.128 L299.664,16.768 L297.792,16.768 Z M307.552,11.2 L304.256,11.2 L304.256,23.984 L307.552,23.984 L307.552,11.2 Z M317.552,13.232 C317.552,11.76 316.704,11.2 315.344,11.2 L308.848,11.2 L308.848,23.984 L315.344,23.984 C316.768,23.984 317.552,23.344 317.552,21.968 L317.552,13.232 Z M312.144,21.056 L312.144,14.144 L314.256,14.144 L314.256,21.056 L312.144,21.056 Z M326.272,21.056 L322.144,21.056 L322.144,18.992 L326.272,18.992 L326.272,16.08 L322.144,16.08 L322.144,14.128 L326.272,14.128 L326.272,11.2 L318.848,11.2 L318.848,23.984 L326.272,23.984 L326.272,21.056 Z M335.872,19.76 C335.872,18.8 335.408,18.352 334.688,18.256 L334.688,18.224 C335.424,18 335.872,17.536 335.872,16.576 L335.872,13.296 C335.872,11.776 335.072,11.2 333.616,11.2 L327.408,11.2 L327.408,23.984 L330.704,23.984 L330.704,19.68 L332.576,19.68 L332.576,23.984 L335.872,23.984 L335.872,19.76 Z M330.704,16.768 L330.704,14.128 L332.576,14.128 L332.576,16.768 L330.704,16.768 Z" id="level-1"></path>
                    <path d="M1223.10994,65.256 C1223.10994,63.72 1222.38994,63.08 1220.85394,63.08 L1218.77394,63.08 L1218.77394,61.128 L1222.78994,61.128 L1222.78994,58.2 L1217.71794,58.2 C1216.26194,58.2 1215.47794,58.776 1215.47794,60.296 L1215.47794,64.008 C1215.47794,65.128 1215.89394,66.008 1217.70194,66.008 L1219.81394,66.008 L1219.81394,68.056 L1215.47794,68.056 L1215.47794,70.984 L1220.86994,70.984 C1222.30994,70.984 1223.10994,70.44 1223.10994,68.968 L1223.10994,65.256 Z M1232.93394,60.232 C1232.93394,58.776 1232.13394,58.2 1230.74194,58.2 L1226.43794,58.2 C1224.98194,58.2 1224.24594,58.872 1224.24594,60.232 L1224.24594,68.968 C1224.24594,70.424 1225.06194,70.984 1226.43794,70.984 L1230.74194,70.984 C1232.19794,70.984 1232.93394,70.392 1232.93394,68.968 L1232.93394,60.232 Z M1227.54194,68.056 L1227.54194,61.144 L1229.63794,61.144 L1229.63794,68.056 L1227.54194,68.056 Z M1242.91794,58.2 L1239.62194,58.2 L1239.62194,68.056 L1237.52594,68.056 L1237.52594,58.2 L1234.22994,58.2 L1234.22994,68.904 C1234.22994,70.424 1235.01394,70.984 1236.46994,70.984 L1240.66194,70.984 C1242.11794,70.984 1242.91794,70.424 1242.91794,68.904 L1242.91794,58.2 Z M1253.62194,58.2 L1250.32594,58.2 L1250.32594,63.784 L1247.09394,58.2 L1244.21394,58.2 L1244.21394,70.984 L1247.50994,70.984 L1247.50994,65.128 L1250.86994,70.984 L1253.62194,70.984 L1253.62194,58.2 Z M1263.62194,60.232 C1263.62194,58.76 1262.77394,58.2 1261.41394,58.2 L1254.91794,58.2 L1254.91794,70.984 L1261.41394,70.984 C1262.83794,70.984 1263.62194,70.344 1263.62194,68.968 L1263.62194,60.232 Z M1258.21394,68.056 L1258.21394,61.144 L1260.32594,61.144 L1260.32594,68.056 L1258.21394,68.056 Z M1272.34194,68.056 L1268.21394,68.056 L1268.21394,65.992 L1272.34194,65.992 L1272.34194,63.08 L1268.21394,63.08 L1268.21394,61.128 L1272.34194,61.128 L1272.34194,58.2 L1264.91794,58.2 L1264.91794,70.984 L1272.34194,70.984 L1272.34194,68.056 Z M1281.94194,66.76 C1281.94194,65.8 1281.47794,65.352 1280.75794,65.256 L1280.75794,65.224 C1281.49394,65 1281.94194,64.536 1281.94194,63.576 L1281.94194,60.296 C1281.94194,58.776 1281.14194,58.2 1279.68594,58.2 L1273.47794,58.2 L1273.47794,70.984 L1276.77394,70.984 L1276.77394,66.68 L1278.64594,66.68 L1278.64594,70.984 L1281.94194,70.984 L1281.94194,66.76 Z M1276.77394,63.768 L1276.77394,61.128 L1278.64594,61.128 L1278.64594,63.768 L1276.77394,63.768 Z M1290.86994,65.256 C1290.86994,63.72 1290.14994,63.08 1288.61394,63.08 L1286.53394,63.08 L1286.53394,61.128 L1290.54994,61.128 L1290.54994,58.2 L1285.47794,58.2 C1284.02194,58.2 1283.23794,58.776 1283.23794,60.296 L1283.23794,64.008 C1283.23794,65.128 1283.65394,66.008 1285.46194,66.008 L1287.57394,66.008 L1287.57394,68.056 L1283.23794,68.056 L1283.23794,70.984 L1288.62994,70.984 C1290.06994,70.984 1290.86994,70.44 1290.86994,68.968 L1290.86994,65.256 Z M1302.88594,63.752 L1299.14194,63.752 L1299.14194,61.128 L1302.88594,61.128 L1302.88594,58.2 L1295.84594,58.2 L1295.84594,70.984 L1299.14194,70.984 L1299.14194,66.664 L1302.88594,66.664 L1302.88594,63.752 Z M1312.72594,58.2 L1306.27794,58.2 C1304.82194,58.2 1304.02194,58.776 1304.02194,60.296 L1304.02194,70.984 L1307.31794,70.984 L1307.31794,67.544 L1309.42994,67.544 L1309.42994,70.984 L1312.72594,70.984 L1312.72594,58.2 Z M1307.31794,64.648 L1307.31794,61.128 L1309.42994,61.128 L1309.42994,64.648 L1307.31794,64.648 Z M1322.70994,60.296 C1322.70994,58.776 1321.90994,58.2 1320.45394,58.2 L1314.02194,58.2 L1314.02194,70.984 L1317.31794,70.984 L1317.31794,61.128 L1319.41394,61.128 L1319.41394,70.984 L1322.70994,70.984 L1322.70994,60.296 Z" id="level-1"></path>
                    <path d="M769.712,261.296 C769.712,259.776 768.912,259.2 767.456,259.2 L761.024,259.2 L761.024,271.984 L764.32,271.984 L764.32,268.848 L767.456,268.848 C768.912,268.848 769.712,268.304 769.712,266.784 L769.712,261.296 Z M764.32,265.936 L764.32,262.128 L766.416,262.128 L766.416,265.936 L764.32,265.936 Z M779.536,259.2 L776.24,259.2 L776.24,269.056 L774.144,269.056 L774.144,259.2 L770.848,259.2 L770.848,269.904 C770.848,271.424 771.632,271.984 773.088,271.984 L777.28,271.984 C778.736,271.984 779.536,271.424 779.536,269.904 L779.536,259.2 Z M789.52,261.296 C789.52,259.776 788.72,259.2 787.264,259.2 L780.832,259.2 L780.832,271.984 L784.128,271.984 L784.128,262.128 L786.224,262.128 L786.224,271.984 L789.52,271.984 L789.52,261.296 Z M799.28,266.736 C799.28,265.584 798.32,264.8 797.376,264.8 L797.168,264.816 L799.264,259.2 L795.984,259.2 L794.208,264.464 L794.112,264.464 L794.112,259.2 L790.816,259.2 L790.816,271.984 L794.112,271.984 L794.112,267.376 L795.984,267.376 L795.984,271.984 L799.28,271.984 L799.28,266.736 Z M812.656,267.76 C812.656,266.8 812.192,266.352 811.472,266.256 L811.472,266.224 C812.208,266 812.656,265.536 812.656,264.576 L812.656,261.296 C812.656,259.776 811.856,259.2 810.4,259.2 L804.192,259.2 L804.192,271.984 L807.488,271.984 L807.488,267.68 L809.36,267.68 L809.36,271.984 L812.656,271.984 L812.656,267.76 Z M807.488,264.768 L807.488,262.128 L809.36,262.128 L809.36,264.768 L807.488,264.768 Z M822.64,261.232 C822.64,259.776 821.84,259.2 820.448,259.2 L816.144,259.2 C814.688,259.2 813.952,259.872 813.952,261.232 L813.952,269.968 C813.952,271.424 814.768,271.984 816.144,271.984 L820.448,271.984 C821.904,271.984 822.64,271.392 822.64,269.968 L822.64,261.232 Z M817.248,269.056 L817.248,262.144 L819.344,262.144 L819.344,269.056 L817.248,269.056 Z M831.456,269.056 L827.232,269.056 L827.232,262.144 L831.456,262.128 L831.456,259.2 L826.128,259.2 C824.672,259.2 823.936,259.76 823.936,261.232 L823.936,269.968 C823.936,271.44 824.672,271.984 826.128,271.984 L831.456,271.984 L831.456,269.056 Z M840.896,266.736 C840.896,265.584 839.936,264.8 838.992,264.8 L838.784,264.816 L840.88,259.2 L837.6,259.2 L835.824,264.464 L835.728,264.464 L835.728,259.2 L832.432,259.2 L832.432,271.984 L835.728,271.984 L835.728,267.376 L837.6,267.376 L837.6,271.984 L840.896,271.984 L840.896,266.736 Z M849.392,269.056 L845.264,269.056 L845.264,266.992 L849.392,266.992 L849.392,264.08 L845.264,264.08 L845.264,262.128 L849.392,262.128 L849.392,259.2 L841.968,259.2 L841.968,271.984 L849.392,271.984 L849.392,269.056 Z M858.992,267.76 C858.992,266.8 858.528,266.352 857.808,266.256 L857.808,266.224 C858.544,266 858.992,265.536 858.992,264.576 L858.992,261.296 C858.992,259.776 858.192,259.2 856.736,259.2 L850.528,259.2 L850.528,271.984 L853.824,271.984 L853.824,267.68 L855.696,267.68 L855.696,271.984 L858.992,271.984 L858.992,267.76 Z M853.824,264.768 L853.824,262.128 L855.696,262.128 L855.696,264.768 L853.824,264.768 Z" id="level-1"></path>
                </g>
                <g id="sattelite-wrap" transform="translate(976.000000, 17.000000)">
                    <g id="icon-sattelite" transform="translate(0.500000, 0.600000)">
                        <path d="M30.0231426,18.3330624 C29.6153906,17.1247453 28.7726443,15.8426111 27.6539624,14.7230504 C26.0229541,13.0929209 24.0624047,12.0796921 22.5359708,12.0796921 C21.977948,12.0796921 21.4831971,12.2123873 21.0789601,12.4681111 C20.9075988,12.4979895 20.7485403,12.5797157 20.6237541,12.7045019 L14.0127219,19.3146552 C13.8519059,19.4754713 13.7622708,19.6934077 13.7631495,19.9201319 C13.7640283,20.1468561 13.8545422,20.3639138 14.016237,20.5238511 L14.0882967,20.5950319 C14.4222316,20.9245729 14.9591637,20.9236942 15.2904623,20.5915168 C15.3642795,20.5176996 15.4750053,20.469367 15.6068217,20.437731 L12.0846873,23.9598654 C10.2436515,23.0178175 8.59418886,22.8482137 7.75583652,23.6856873 C6.47721738,24.9643064 7.53877883,28.1287789 10.1179865,30.9830435 L7.95707623,33.143075 C7.62402011,33.4761311 7.62402011,34.0156996 7.95707623,34.3487558 C8.1231649,34.5139657 8.34198014,34.5983282 8.55991659,34.5983282 C8.77785305,34.5983282 8.99666829,34.5139657 9.16275696,34.3487558 L11.3236672,32.1878455 C14.1770531,34.7670532 17.3424044,35.8286146 18.6201447,34.5499955 C19.4576183,33.7125219 19.2871357,32.0621805 18.3468454,30.2220235 L21.96213,26.6067388 C21.9401606,26.8114936 21.8891916,26.9854913 21.7863748,27.0883081 C21.4541975,27.4204854 21.4541975,27.9609327 21.7863748,28.2939888 C21.9524635,28.4591987 22.1703999,28.5426824 22.3892152,28.5426824 C22.6071516,28.5426824 22.8259669,28.4591987 22.9929343,28.2939888 L22.9938131,28.2939888 C22.9938131,28.2922313 22.9955706,28.2913525 22.9955706,28.2904737 L29.6022089,21.6838354 C30.3509261,20.9333607 30.5011968,19.7434979 30.0231426,18.3330624 Z M17.4346758,28.7245891 C16.9390462,28.0215683 16.351145,27.3141535 15.6727299,26.6348597 C14.9925572,25.9564446 14.2851425,25.3676646 13.5821217,24.8720349 L17.5761588,20.8762403 C18.2791796,21.2242356 19.0630478,21.7638041 19.8381283,22.5397633 C20.577179,23.2796927 21.1088385,24.0257736 21.4585913,24.7006736 L17.4346758,28.7245891 Z" id="Shape"></path>
                        <path d="M10.7542204,37.1028399 C9.37542076,37.2487167 7.87974394,36.6696033 6.75842571,35.5465275 C5.85416516,34.6440245 5.30053626,33.5068883 5.19859823,32.3469039 C5.15729576,31.8785163 4.75042245,31.5366724 4.27500462,31.5727022 C3.80573821,31.6140047 3.45950045,32.028787 3.50080292,32.4962959 C3.63789198,34.0543658 4.3672761,35.5658606 5.55274498,36.7522082 C6.87706047,38.0774025 8.62494602,38.828756 10.3306503,38.828756 C10.5327688,38.828756 10.7357661,38.8182107 10.936127,38.7962413 C11.4045146,38.7461511 11.7428434,38.3260961 11.6927532,37.8585873 C11.6426629,37.3893209 11.2199717,37.0501133 10.7542204,37.1028399 Z" id="Shape"></path>
                        <path d="M10.5494656,40.3613414 C8.26728417,40.7910629 5.84713495,39.9922555 4.08079511,38.2250369 C2.59039094,36.7337539 1.77225045,34.7398111 1.83552232,32.7528985 C1.85046152,32.2827533 1.48137558,31.8890616 1.0112304,31.8741224 C0.549872975,31.8644559 0.147393547,32.2273904 0.132454355,32.6984144 C0.0542432871,35.1537146 1.05429042,37.6063785 2.87599316,39.4298388 C4.65024198,41.2058452 6.97636217,42.1812866 9.32005787,42.1812866 C9.83589941,42.1812866 10.3526197,42.1329539 10.8640674,42.0371673 C11.3263036,41.9501685 11.6321176,41.5046291 11.54424,41.0415141 C11.4563624,40.5783991 11.0152169,40.2743426 10.5494656,40.3613414 Z" id="Shape"></path>
                        <path d="M12.5592264,17.2899552 C12.725315,17.4560439 12.9432515,17.5395276 13.1620667,17.5395276 C13.3800032,17.5395276 13.5979396,17.4560439 13.7649071,17.2899552 L19.7397054,11.3142782 C19.9005214,11.1543409 19.9901566,10.9372832 19.9901566,10.7114378 C19.9901566,10.4855923 19.9005214,10.2685347 19.7397054,10.1085974 L9.87983821,0.249609012 C9.54766087,-0.0834471083 9.00809238,-0.0834471083 8.67415748,0.249609012 L2.6984804,6.22528609 C2.53942193,6.38522333 2.448908,6.60228102 2.448908,6.82812646 C2.448908,7.05309313 2.53942193,7.27015081 2.6984804,7.43096682 L12.5592264,17.2899552 Z" id="Shape"></path>
                        <path d="M41.804893,32.1746638 L31.9450258,22.3139179 C31.7842098,22.1531019 31.5680309,22.0643455 31.3421855,22.0643455 C31.1154613,22.0643455 30.8992823,22.1539806 30.7384663,22.3139179 L24.7619105,28.2904737 C24.6019732,28.450411 24.5132169,28.6674686 24.5132169,28.8933141 C24.5132169,29.1200383 24.602852,29.337096 24.7619105,29.4970332 L34.6217777,39.3560216 C34.7878663,39.5221103 35.0066816,39.605594 35.2254968,39.605594 C35.444312,39.605594 35.6613697,39.5221103 35.8283372,39.3560216 L41.804893,33.3803446 C42.1370704,33.0472884 42.1370704,32.5077199 41.804893,32.1746638 Z" id="Shape"></path>
                    </g>
                </g>
                <g id="ufo-wrap" transform="translate(204.000000, 173.000000)">
                    <g id="icon-ufo" transform="translate(0.376873, 0.000000)">
                        <path d="M26.2109375,46.305975 C25.7286562,46.305975 25.3372396,46.6973917 25.3372396,47.1796729 C25.3372396,47.6619542 25.7286562,48.0533709 26.2109375,48.0533709 C26.6932187,48.0533709 27.0846354,47.6619542 27.0846354,47.1796729 C27.0846354,46.6973917 26.6932187,46.305975 26.2109375,46.305975" id="Fill-437"></path>
                        <path d="M26.2109375,41.9374854 C25.7277826,41.9374854 25.3372396,42.3280284 25.3372396,42.8111834 L25.3372396,43.6848813 C25.3372396,44.1680362 25.7277826,44.5585792 26.2109375,44.5585792 C26.6940924,44.5585792 27.0846354,44.1680362 27.0846354,43.6848813 L27.0846354,42.8111834 C27.0846354,42.3280284 26.6940924,41.9374854 26.2109375,41.9374854" id="Fill-438"></path>
                        <path d="M26.2109375,49.8007667 C25.7277826,49.8007667 25.3372396,50.1913097 25.3372396,50.6744646 L25.3372396,51.5481625 C25.3372396,52.0313175 25.7277826,52.4218604 26.2109375,52.4218604 C26.6940924,52.4218604 27.0846354,52.0313175 27.0846354,51.5481625 L27.0846354,50.6744646 C27.0846354,50.1913097 26.6940924,49.8007667 26.2109375,49.8007667" id="Fill-439"></path>
                        <path d="M31.453125,41.0637875 C30.9699701,41.0637875 30.5794271,41.4543305 30.5794271,41.9374854 L30.5794271,43.6848813 C30.5794271,44.1680362 30.9699701,44.5585792 31.453125,44.5585792 C31.9362799,44.5585792 32.3268229,44.1680362 32.3268229,43.6848813 L32.3268229,41.9374854 C32.3268229,41.4543305 31.9362799,41.0637875 31.453125,41.0637875" id="Fill-440"></path>
                        <path d="M31.453125,46.305975 C30.9699701,46.305975 30.5794271,46.696518 30.5794271,47.1796729 L30.5794271,49.8007667 C30.5794271,50.2839216 30.9699701,50.6744646 31.453125,50.6744646 C31.9362799,50.6744646 32.3268229,50.2839216 32.3268229,49.8007667 L32.3268229,47.1796729 C32.3268229,46.696518 31.9362799,46.305975 31.453125,46.305975" id="Fill-441"></path>
                        <path d="M20.96875,47.1796729 C20.4855951,47.1796729 20.0950521,47.5702159 20.0950521,48.0533709 L20.0950521,50.6744646 C20.0950521,51.1576196 20.4855951,51.5481625 20.96875,51.5481625 C21.4519049,51.5481625 21.8424479,51.1576196 21.8424479,50.6744646 L21.8424479,48.0533709 C21.8424479,47.5702159 21.4519049,47.1796729 20.96875,47.1796729" id="Fill-442"></path>
                        <path d="M20.96875,41.0637875 C20.4855951,41.0637875 20.0950521,41.4543305 20.0950521,41.9374854 L20.0950521,44.5585792 C20.0950521,45.0417341 20.4855951,45.4322771 20.96875,45.4322771 C21.4519049,45.4322771 21.8424479,45.0417341 21.8424479,44.5585792 L21.8424479,41.9374854 C21.8424479,41.4543305 21.4519049,41.0637875 20.96875,41.0637875" id="Fill-443"></path>
                        <path d="M26.2109375,27.0846209 C25.7286562,27.0846209 25.3372396,27.4760375 25.3372396,27.9583188 C25.3372396,28.4406 25.7286562,28.8320167 26.2109375,28.8320167 C26.6932187,28.8320167 27.0846354,28.4406 27.0846354,27.9583188 C27.0846354,27.4760375 26.6932187,27.0846209 26.2109375,27.0846209" id="Fill-444"></path>
                        <path d="M34.0742187,26.2109229 C33.5919375,26.2109229 33.2005208,26.6023396 33.2005208,27.0846209 C33.2005208,27.5669021 33.5919375,27.9583188 34.0742187,27.9583188 C34.5565,27.9583188 34.9479167,27.5669021 34.9479167,27.0846209 C34.9479167,26.6023396 34.5565,26.2109229 34.0742187,26.2109229" id="Fill-445"></path>
                        <path d="M41.0638021,24.4635271 C40.5815208,24.4635271 40.1901042,24.8549438 40.1901042,25.337225 C40.1901042,25.8195063 40.5815208,26.2109229 41.0638021,26.2109229 C41.5460833,26.2109229 41.9375,25.8195063 41.9375,25.337225 C41.9375,24.8549438 41.5460833,24.4635271 41.0638021,24.4635271" id="Fill-446"></path>
                        <path d="M11.3580729,24.4635271 C10.8757917,24.4635271 10.484375,24.8549438 10.484375,25.337225 C10.484375,25.8195063 10.8757917,26.2109229 11.3580729,26.2109229 C11.8403542,26.2109229 12.2317708,25.8195063 12.2317708,25.337225 C12.2317708,24.8549438 11.8403542,24.4635271 11.3580729,24.4635271" id="Fill-447"></path>
                        <path d="M18.3476562,26.2109229 C17.865375,26.2109229 17.4739583,26.6023396 17.4739583,27.0846209 C17.4739583,27.5669021 17.865375,27.9583188 18.3476562,27.9583188 C18.8299375,27.9583188 19.2213542,27.5669021 19.2213542,27.0846209 C19.2213542,26.6023396 18.8299375,26.2109229 18.3476562,26.2109229" id="Fill-448"></path>
                        <path d="M38.7048177,30.5314465 C38.5755104,30.5524153 38.4444557,30.5725103 38.313401,30.5926054 C38.1316719,30.6205637 37.9481953,30.6476483 37.7629714,30.674733 C34.2410951,31.1806041 30.2902331,31.4531978 26.2109375,31.4531978 C22.1316419,31.4531978 18.1799062,31.1806041 14.6589036,30.674733 C14.4736797,30.6476483 14.2902031,30.6205637 14.108474,30.5926054 C13.9774193,30.5725103 13.8463646,30.5524153 13.7170573,30.5314465 C6.10802214,29.3039009 1.74739583,27.0847082 1.74739583,25.3373124 C1.74739583,23.8607629 5.04298437,21.7324348 12.2509922,20.3948033 C12.2387604,20.5450793 12.2317708,20.7268085 12.2317708,20.9688228 L12.2317708,21.598759 L16.0393464,22.8673684 C19.3192083,23.9612382 22.7650729,24.5081731 26.2109375,24.5081731 C29.6559284,24.5081731 33.1035404,23.9612382 36.3825286,22.8673684 L40.1901042,21.598759 L40.1901042,20.9688228 C40.1901042,20.7119556 40.1822409,20.5232369 40.1700091,20.3948033 C47.3780169,21.7333085 50.6744792,23.8607629 50.6744792,25.3373124 C50.6744792,27.0847082 46.3138529,29.3039009 38.7048177,30.5314465 L38.7048177,30.5314465 Z M24.4635417,12.2318436 C24.9466966,12.2318436 25.3372396,12.6223866 25.3372396,13.1055416 C25.3372396,13.5886965 24.9466966,13.9792395 24.4635417,13.9792395 C22.0547565,13.9792395 20.0950521,15.9389439 20.0950521,18.3477291 C20.0950521,18.830884 19.7045091,19.221427 19.2213542,19.221427 C18.7381992,19.221427 18.3476562,18.830884 18.3476562,18.3477291 C18.3476562,14.9752551 21.0919414,12.2318436 24.4635417,12.2318436 L24.4635417,12.2318436 Z M25.3372396,3.49486447 L27.0846354,3.49486447 L27.0846354,1.74746864 L25.3372396,1.74746864 L25.3372396,3.49486447 Z M52.421875,25.3373124 C52.421875,21.3034491 44.1593138,19.3262707 39.9655638,18.5836275 C38.8813047,12.5935546 33.7535716,8.25477072 27.0846354,7.90179677 L27.0846354,5.24226031 L27.9583333,5.24226031 L28.8320312,4.36856239 L28.8320312,0.873770725 L27.9583333,7.28081598e-05 L24.4635417,7.28081598e-05 L23.5898437,0.873770725 L23.5898437,4.36856239 L24.4635417,5.24226031 L25.3372396,5.24226031 L25.3372396,7.90179677 C18.6683034,8.25477072 13.5405703,12.5935546 12.4563112,18.5836275 C8.2625612,19.3262707 0,21.3034491 0,25.3373124 C0,27.5206835 2.4725651,29.2724478 6.290625,30.564647 C9.09781641,36.3345481 17.026625,40.190177 26.2109375,40.190177 C35.39525,40.190177 43.3240586,36.3345481 46.13125,30.564647 C49.9493099,29.2724478 52.421875,27.5206835 52.421875,25.3373124 L52.421875,25.3373124 Z" id="Fill-449"></path>
                    </g>
                </g>
                <g id="astro-wrap" transform="translate(1239.000000, 226.000000)">
                    <g id="icon-astronaut" transform="translate(0.585938, 0.000000)">
                        <path d="M24.4627814,35.4968137 C23.9964517,35.4968137 23.5641622,35.4776009 23.1809491,35.4500346 L17.6196598,44.6640656 L18.7818293,45.365544 C19.7689947,45.9613517 21.0529154,45.6443394 21.6489319,44.6567563 L27.3499321,35.2113356 C26.3736262,35.4245566 25.3716335,35.4968137 24.4627814,35.4968137 L24.4627814,35.4968137 Z" id="Shape"></path>
                        <path d="M32.5420003,18.5951304 C33.2131976,19.6205127 33.6482019,20.7578308 33.8509812,22.0208679 C33.96417,22.7263142 34.0023869,23.4678891 33.9675114,24.2470543 L36.5409912,19.9834688 C37.1367989,18.9963034 36.8193689,17.7121739 35.8322035,17.1163662 L34.4311262,16.2707913 C34.3597044,16.4077874 34.2849413,16.5439481 34.204122,16.6780205 C33.750949,17.4285753 33.1850048,18.0697003 32.5420003,18.5951304 Z" id="Shape"></path>
                        <path d="M8.2239419,23.6560498 L2.5179296,33.1100328 C1.92191309,34.0976159 2.23913421,35.3811189 3.22671728,35.9771354 L4.38888682,36.6786138 L9.9505938,27.4639563 C9.36501906,26.5200199 8.63430365,25.1502678 8.2239419,23.6560498 Z" id="Shape"></path>
                        <path d="M20.5005455,11.334129 C20.6655255,10.5182087 20.9697988,9.71669804 21.4238072,8.96426374 C21.5048354,8.83019135 21.5904579,8.70071334 21.6783777,8.57374136 L20.8137987,8.05186145 L22.5191494,5.22631717 L21.0796463,3.29939203 C21.1322728,3.2327735 21.1826022,3.16344012 21.2277107,3.08867701 C21.8088999,2.12594537 21.4994057,0.874394229 20.536674,0.293205039 C19.5739424,-0.287984151 18.3223912,0.0215100563 17.741202,0.984241701 C17.1600128,1.94697335 17.4695071,3.19852448 18.4322387,3.77971367 C19.0011066,4.12303923 19.6700067,4.15332038 20.2426336,3.92381017 L21.2619597,5.28813247 L19.8978462,7.54794139 C18.9816849,7.22111384 17.9318688,7.57174864 17.4099889,8.43653644 L14.8329589,12.7061782 C16.4434983,11.7607799 18.0536199,11.2923619 19.682328,11.2923619 C19.9538141,11.2925707 20.2265533,11.307398 20.5005455,11.334129 Z" id="Shape"></path>
                        <path d="M1.61200121,48.9581411 C3.18536785,49.9077161 5.24970674,49.397531 6.19928175,47.8241643 L14.97622,33.2823221 L15.6914816,33.7139851 L6.91454333,48.2558273 C5.96496832,49.8291939 6.47515344,51.8935328 8.04852008,52.8431078 L8.04852008,52.8431078 C9.62188672,53.7926828 11.6862256,53.2824977 12.6358006,51.7091311 L22.4869887,35.3873839 C22.3566754,35.3729743 22.2374303,35.3585646 22.1334302,35.3449903 C21.7019761,35.2881871 21.2955822,35.1459701 20.925108,34.9225161 C19.8583763,34.2786763 19.2744723,33.0647155 19.4375728,31.8298712 C19.5470026,31.0001678 19.9728182,30.2629785 20.6367062,29.7538375 C21.3005943,29.2446966 22.1231973,29.0243751 22.9526919,29.1338049 C24.2288856,29.3021264 25.6903164,29.1939496 26.274847,29.0291784 C26.9431206,27.515121 27.3470084,26.2990719 27.5545909,25.3129507 L28.1334829,25.5650151 C27.8968723,26.6352971 27.4570647,27.9317478 26.742012,29.5199418 C26.3679876,29.7126969 25.4704126,29.8308978 24.5012071,29.8425926 L24.5298176,34.8694719 C26.8861085,34.8598655 30.0530988,34.3350619 31.2202804,31.7797507 C33.7517843,26.2378831 34.0376801,22.0620085 32.0349477,18.9733315 C29.6947371,20.5738467 26.5381885,20.7693168 23.9565641,19.2111951 C21.3755662,17.6530735 20.0774448,14.7690552 20.4032281,11.9524909 C16.737121,11.6196071 13.1754316,13.818436 9.45147696,18.6406565 C7.73443149,20.8639192 8.74561297,23.9106203 9.83510777,26.0000195 L14.2962517,23.6829896 C13.8549823,22.8200813 13.5413113,21.9707474 13.5377611,21.5499438 C14.6099226,20.1772681 15.5521884,19.1840465 16.3887834,18.4758853 L16.8816351,18.8705844 C16.1058113,19.5137977 15.2180516,20.437686 14.1897456,21.7345544 C14.3162999,22.3282737 14.9014569,23.6719213 15.6451201,24.7227816 C16.1285743,25.4058825 16.3169439,26.2362124 16.1757711,27.0609038 C16.0345984,27.8855952 15.5807988,28.6060776 14.8976979,29.089323 C13.8808779,29.8089701 12.5347242,29.8578376 11.4682014,29.2142066 C11.097936,28.9907526 10.7825944,28.6973388 10.5313653,28.3421096 C10.470803,28.2566959 10.4025138,28.1579167 10.3292126,28.0493222 L0.478024454,44.3708605 C-0.471759389,45.9442272 0.0386345671,48.0085661 1.61200121,48.9581411 Z M18.090375,19.9053643 L20.1762239,21.1642247 L18.5934597,23.7863632 L16.5076108,22.5275028 L18.090375,19.9053643 Z M26.0762444,24.7254964 L24.4934802,27.3476349 L19.5916934,24.3890624 L21.1744576,21.7669239 L26.0762444,24.7254964 Z" id="Shape"></path>
                        <path d="M10.2043289,26.6712168 C10.5282328,27.2292252 10.8320884,27.6826071 11.0425946,27.9801977 C11.2485064,28.2711055 11.5049564,28.5047924 11.7918964,28.6779171 C12.6188849,29.1770339 13.6971026,29.171813 14.535786,28.5780937 C15.665586,27.7786714 15.9333131,26.2144935 15.133682,25.0846935 C14.9730875,24.8578981 14.8152079,24.6104281 14.6646375,24.3546046 L10.2043289,26.6712168 Z" id="Shape"></path>
                        <path d="M23.7644355,34.8554799 L23.735825,29.829436 C23.4392786,29.815444 23.1467001,29.7910103 22.871246,29.7546729 C21.498988,29.5736125 20.2399188,30.5392678 20.0590672,31.9115259 C19.9245772,32.9302255 20.422441,33.886692 21.2492207,34.3858089 C21.5361607,34.5589335 21.8623618,34.6771344 22.2157114,34.7237047 C22.5769968,34.7713192 23.1197603,34.8289578 23.7644355,34.8554799 Z" id="Shape"></path>
                        <path d="M27.3280044,4.13536053 C27.2724542,3.91169771 27.0458676,3.77491046 26.821996,3.83004303 L24.3892713,4.4316981 C24.1651908,4.4870395 24.0286124,4.71341718 24.0841626,4.93728884 L24.3938657,6.19009299 C25.3966937,5.67489582 26.5056102,5.39296789 27.6316512,5.36352209 L27.3280044,4.13536053 Z" id="Shape"></path>
                        <path d="M24.2806768,18.6749055 C27.513868,20.6264733 31.7162647,19.5873078 33.6676236,16.3543255 C35.6189825,13.1213432 34.5802347,8.91894644 31.3470436,6.96737871 C28.1144789,5.01622866 23.9114557,6.05497642 21.9603056,9.28795876 C20.0089467,12.5209411 21.0481121,16.7237555 24.2806768,18.6749055 Z M23.122684,9.87102747 C24.266476,7.97584533 27.1145745,8.05791768 29.734207,9.63922007 C32.3540483,11.2203136 33.7536638,13.7021147 32.6098718,15.5972968 C31.4660798,17.492479 28.2115874,18.0836923 25.5919549,16.5023899 C22.9721136,14.9212963 21.978892,11.7662096 23.122684,9.87102747 Z" id="Shape"></path>
                    </g>
                </g>
                <g id="planet-wrap" transform="translate(0.000000, 60.000000)">
                    <g id="icon-planet" transform="translate(0.914062, 0.600000)">
                        <path d="M53.2093441,13.7844419 C52.7956943,11.4540206 47.837723,10.2538537 40.6250691,10.28881 C44.1207011,10.6092429 46.3404273,11.4540206 46.5792955,12.805665 C47.0861621,15.6371268 38.4869076,19.5464086 27.3533199,21.5447448 C16.2197322,23.5430811 6.82813438,22.873085 6.32126775,20.0416231 C6.07657351,18.6899787 7.91760633,17.0878141 11.1102835,15.5730403 C4.25884491,18.060765 -1.99840144e-15,20.9388353 0.390345566,23.2634305 C1.05451563,26.9746264 13.4174006,27.8660126 28.0058378,25.2442886 C42.5942751,22.6225647 53.8735141,17.4781597 53.2093441,13.7844419 Z" id="Shape"></path>
                        <ellipse id="Oval" cx="26.7998448" cy="16.312949" rx="16.0041682" ry="16.0041682"></ellipse>
                    </g>
                </g>
            </g>
        </g>
    </g>
</svg>